<svg xmlns="http://www.w3.org/2000/svg" xmlns:xlink="http://www.w3.org/1999/xlink" width="500" zoomAndPan="magnify" viewBox="0 0 375 374.999991" height="500" preserveAspectRatio="xMidYMid meet" version="1.0"><defs><clipPath id="d2c445f2e2"><path d="M 158 191 L 174 191 L 174 215.726562 L 158 215.726562 Z M 158 191 " clip-rule="nonzero"/></clipPath><clipPath id="076b8ad127"><path d="M 135.820312 159.476562 L 155 159.476562 L 155 188 L 135.820312 188 Z M 135.820312 159.476562 " clip-rule="nonzero"/></clipPath></defs><path fill="#f8ac8b" d="M 156.027344 291.003906 C 151.125 288.972656 147.109375 282.234375 145.8125 277.085938 L 143.039062 266.089844 L 141.570312 260.261719 L 141.5625 260.238281 L 140.625 255.980469 C 140.320312 256.15625 116.886719 269.054688 106.792969 269.582031 L 106.792969 269.828125 C 96.976562 269.113281 86.742188 265.113281 74.578125 258.15625 C 74.277344 257.980469 73.96875 257.804688 73.664062 257.628906 L 72.929688 260.539062 L 72.921875 260.5625 L 71.453125 266.394531 L 68.683594 277.386719 C 67.382812 282.535156 64.578125 287.761719 59.671875 289.796875 C 59.671875 289.796875 81.972656 321.042969 107.699219 321.476562 L 107.699219 321.152344 C 133.121094 320.46875 156.027344 291.003906 156.027344 291.003906 " fill-opacity="1" fill-rule="nonzero"/><path fill="#f59876" d="M 143.039062 266.089844 L 140.625 256.28125 C 140.644531 256.253906 122.125 257.832031 106.792969 257.875 L 106.792969 258.175781 C 91.796875 258.132812 77.707031 258.125 74.578125 258.15625 C 74.148438 258.160156 73.917969 258.164062 73.917969 258.171875 C 73.945312 258.191406 73.542969 258.066406 73.566406 258.09375 L 72.929688 260.539062 L 72.921875 260.5625 L 70.246094 271.078125 C 79.609375 284.058594 123.105469 295.230469 143.039062 266.089844 " fill-opacity="1" fill-rule="nonzero"/><path fill="#f8ac8b" d="M 154.425781 227.496094 C 152.058594 237.875 145.617188 250.871094 139.886719 257.542969 C 139.304688 258.226562 138.699219 258.863281 138.082031 259.453125 C 138.058594 259.472656 138.035156 259.496094 138.015625 259.519531 C 137.992188 259.539062 137.96875 259.5625 137.945312 259.585938 C 137.699219 259.8125 137.460938 260.042969 137.222656 260.261719 C 115.710938 280.339844 99.792969 278.066406 77.21875 264.441406 C 75.964844 263.679688 74.769531 262.832031 73.636719 261.90625 C 73.445312 261.753906 73.261719 261.597656 73.078125 261.433594 C 72.480469 260.925781 71.902344 260.394531 71.339844 259.835938 C 71.304688 259.804688 71.269531 259.769531 71.234375 259.730469 C 63.582031 252.113281 59.09375 240.511719 56.625 227.96875 C 55.628906 222.941406 54.960938 217.757812 54.542969 212.625 C 54.039062 206.441406 53.894531 200.324219 53.984375 194.617188 C 53.988281 194.363281 53.992188 194.109375 53.996094 193.859375 C 54.742188 155.464844 89.980469 126.917969 127.652344 134.460938 C 127.78125 134.488281 136.988281 143.441406 139.140625 147.105469 C 140.574219 149.542969 152.152344 144.957031 153.332031 147.523438 C 154.816406 150.742188 155.742188 160.835938 156.882812 164.175781 C 160.167969 173.761719 159.0625 184.359375 160.160156 194.46875 C 160.5 197.605469 155.914062 220.957031 154.425781 227.496094 " fill-opacity="1" fill-rule="nonzero"/><path fill="#031a27" d="M 95.65625 169.578125 L 71.933594 178.523438 C 71.933594 178.523438 73.492188 180.601562 89.773438 179.40625 C 91.613281 179.273438 93.328125 178.425781 94.53125 177.03125 C 96.066406 175.253906 97.441406 172.558594 95.65625 169.578125 " fill-opacity="1" fill-rule="nonzero"/><path fill="#031a27" d="M 113.085938 169.578125 L 136.808594 178.523438 C 136.808594 178.523438 135.246094 180.601562 118.960938 179.40625 C 117.125 179.273438 115.410156 178.425781 114.207031 177.03125 C 112.675781 175.253906 111.296875 172.558594 113.085938 169.578125 " fill-opacity="1" fill-rule="nonzero"/><path fill="#f8ac8b" d="M 58.585938 199.015625 C 58.585938 199.015625 44.019531 177.929688 41.007812 196.503906 C 41.007812 196.503906 39.691406 242.890625 57.425781 230.742188 C 57.425781 230.742188 64.800781 211.988281 58.585938 199.015625 " fill-opacity="1" fill-rule="nonzero"/><path fill="#f8ac8b" d="M 155.328125 198.566406 C 155.328125 198.566406 169.890625 177.484375 172.90625 196.058594 C 172.90625 196.058594 172.203125 239.503906 154.472656 227.351562 C 154.472656 227.351562 149.113281 211.539062 155.328125 198.566406 " fill-opacity="1" fill-rule="nonzero"/><path fill="#031a27" d="M 57.292969 127.941406 C 57.292969 127.941406 86.921875 71.75 147.558594 120.140625 L 158.832031 118.871094 L 152.230469 127.796875 L 164.925781 122.273438 C 164.925781 122.273438 167.207031 145.171875 143.742188 152.765625 C 128.820312 157.59375 115.882812 159.652344 102.089844 159.929688 C 97.09375 160.03125 67.839844 154.328125 65.519531 158.949219 C 60.894531 168.167969 55.511719 206.933594 55.511719 206.933594 C 55.511719 206.933594 20.171875 136.214844 57.292969 127.941406 " fill-opacity="1" fill-rule="nonzero"/><path fill="#031a27" d="M 151.90625 129.546875 C 151.90625 129.546875 165.046875 125.679688 165.242188 176.941406 L 162.105469 198.878906 L 153.238281 176.589844 C 150.214844 163.789062 149.449219 150.5625 150.976562 137.5 L 151.90625 129.546875 " fill-opacity="1" fill-rule="nonzero"/><path fill="#2d4b81" d="M 267.703125 453.742188 C 267.703125 453.742188 265.449219 454.699219 261.695312 456.035156 C 252.132812 459.441406 232.839844 465.335938 216.34375 464.28125 C 211.167969 463.953125 206.273438 462.941406 202.039062 460.957031 C 200.917969 460.433594 199.847656 459.84375 198.832031 459.179688 L 199.222656 471.273438 L 202.125 561.429688 L 203.234375 603.5 L 12.550781 602.292969 L 13.578125 560.21875 L 16.871094 457.96875 C 15.851562 458.632812 14.78125 459.226562 13.664062 459.746094 C -4.089844 468.070312 -33.433594 459.300781 -45.992188 454.828125 C -49.746094 453.488281 -52 452.535156 -52 452.535156 C -51.097656 440.535156 -46.128906 397.5625 -42.832031 387.480469 C -40.628906 380.746094 -37.96875 374.421875 -34.953125 368.496094 C -5.039062 309.683594 59.839844 289.65625 59.839844 289.65625 C 63.042969 292.742188 66.230469 295.585938 69.402344 298.164062 C 98.113281 321.539062 125.539062 323.746094 151.160156 296.261719 C 152.738281 294.574219 154.304688 292.777344 155.863281 290.863281 C 155.863281 290.863281 220.738281 310.890625 250.652344 369.703125 C 253.671875 375.628906 256.332031 381.953125 258.53125 388.6875 C 261.832031 398.765625 266.800781 441.746094 267.703125 453.742188 " fill-opacity="1" fill-rule="nonzero"/><path fill="#f3fafa" d="M 70.722656 165.996094 C 70.722656 165.996094 61.664062 177.667969 68.855469 177.992188 C 73.402344 178.195312 70.722656 165.996094 70.722656 165.996094 " fill-opacity="1" fill-rule="nonzero"/><path fill="#f3fafa" d="M 138.058594 161.742188 C 138.058594 161.742188 139.574219 173.121094 143.675781 169.320312 C 146.273438 166.917969 138.058594 161.742188 138.058594 161.742188 " fill-opacity="1" fill-rule="nonzero"/><path fill="#f3fafa" d="M 143.554688 179.648438 C 143.554688 179.648438 142.480469 187.546875 146.429688 186.917969 C 148.925781 186.519531 143.554688 179.648438 143.554688 179.648438 " fill-opacity="1" fill-rule="nonzero"/><path fill="#f3fafa" d="M 105.546875 166.625 C 105.546875 166.625 102.828125 173.789062 106.660156 174.058594 C 109.089844 174.230469 105.546875 166.625 105.546875 166.625 " fill-opacity="1" fill-rule="nonzero"/><path fill="#f3fafa" d="M 67.726562 188.289062 C 67.726562 188.289062 67.203125 194.605469 64.835938 192.621094 C 63.339844 191.367188 67.726562 188.289062 67.726562 188.289062 " fill-opacity="1" fill-rule="nonzero"/><path fill="#da7d5b" d="M 105.71875 200.625 C 107.125 203.59375 108.324219 206.648438 109.449219 209.746094 C 110.53125 212.859375 111.484375 216.035156 112.050781 219.367188 C 112.289062 220.71875 112.484375 222.09375 112.519531 223.546875 C 112.535156 224.214844 112.507812 224.886719 112.414062 225.546875 C 112.324219 226.1875 112.171875 226.84375 111.84375 227.527344 C 111.753906 227.777344 111.5625 228.035156 111.410156 228.28125 C 111.261719 228.53125 111.066406 228.773438 110.824219 228.996094 C 110.601562 229.226562 110.363281 229.4375 110.070312 229.601562 C 109.785156 229.769531 109.507812 229.953125 109.199219 230.035156 C 108.914062 230.117188 108.53125 230.238281 108.332031 230.253906 L 107.679688 230.332031 C 107.246094 230.386719 106.8125 230.4375 106.363281 230.4375 C 105.921875 230.457031 105.476562 230.453125 105.023438 230.421875 C 104.578125 230.417969 104.117188 230.34375 103.667969 230.265625 C 102.050781 229.992188 99.769531 229.0625 99.648438 227.144531 C 101.527344 227.816406 103.582031 227.992188 105.550781 227.652344 C 106.5 227.488281 107.46875 227.1875 108.160156 226.515625 C 109.863281 224.863281 109.382812 221.574219 109.246094 219.433594 C 109.042969 216.324219 108.460938 213.253906 107.816406 210.210938 C 107.144531 207.035156 106.292969 203.890625 105.402344 200.75 L 105.71875 200.625 " fill-opacity="1" fill-rule="nonzero"/><path fill="#031a27" d="M 91.300781 195.273438 C 91.300781 198.617188 88.933594 201.332031 86.015625 201.332031 C 83.097656 201.332031 80.734375 198.617188 80.734375 195.273438 C 80.734375 191.925781 83.097656 189.214844 86.015625 189.214844 C 88.933594 189.214844 91.300781 191.925781 91.300781 195.273438 " fill-opacity="1" fill-rule="nonzero"/><path fill="#031a27" d="M 129.660156 195.273438 C 129.660156 198.617188 127.296875 201.332031 124.378906 201.332031 C 121.460938 201.332031 119.09375 198.617188 119.09375 195.273438 C 119.09375 191.925781 121.460938 189.214844 124.378906 189.214844 C 127.296875 189.214844 129.660156 191.925781 129.660156 195.273438 " fill-opacity="1" fill-rule="nonzero"/><path fill="#132044" d="M 151.160156 296.265625 C 149.804688 301.011719 146.351562 305.472656 144.109375 309.835938 C 141.015625 315.863281 139.480469 320.882812 140.347656 327.757812 C 140.9375 332.410156 142.007812 337.070312 141.535156 341.734375 C 141.195312 345.113281 139.546875 348.871094 136.25 349.660156 C 134.824219 350.003906 133.253906 349.734375 131.933594 350.371094 C 130.71875 350.953125 129.960938 352.195312 129.441406 353.4375 C 126.996094 359.296875 128.46875 365.933594 128.953125 372.265625 C 129.785156 383.121094 122.722656 395.246094 110.144531 393.140625 C 101.234375 391.648438 100.398438 383.089844 101.875 375.460938 C 102.925781 370.046875 102.667969 367.519531 101.65625 361.957031 C 100.652344 356.417969 93.519531 352.546875 91.992188 347.164062 C 91.03125 343.777344 91.800781 336.949219 90.785156 333.574219 C 88.480469 325.917969 88.332031 321.605469 82.097656 317.402344 C 75.585938 313.011719 71.773438 305.574219 69.480469 298.246094 C 81.664062 307.765625 95.691406 316.332031 111.679688 316.285156 C 118.65625 316.265625 125.496094 314.496094 131.730469 311.382812 C 135.285156 309.609375 138.625 307.421875 141.75 304.972656 C 144.070312 303.160156 150.34375 299.128906 151.160156 296.265625 " fill-opacity="1" fill-rule="nonzero"/><path fill="#ffffff" d="M 97.398438 254.871094 L 104.570312 254.042969 C 107.453125 253.707031 110.359375 253.707031 113.238281 254.039062 L 120.464844 254.871094 C 121.707031 254.871094 122.359375 253.390625 121.515625 252.480469 C 117.59375 248.246094 108.09375 240.917969 96.398438 252.421875 C 95.484375 253.320312 96.117188 254.871094 97.398438 254.871094 " fill-opacity="1" fill-rule="nonzero"/><path fill="#f88679" d="M 145.457031 213.902344 C 145.457031 217.078125 141.519531 219.652344 136.664062 219.652344 C 131.804688 219.652344 127.867188 217.078125 127.867188 213.902344 C 127.867188 210.726562 131.804688 208.15625 136.664062 208.15625 C 141.519531 208.15625 145.457031 210.726562 145.457031 213.902344 " fill-opacity="1" fill-rule="nonzero"/><path fill="#f88679" d="M 86.929688 215.933594 C 86.929688 219.105469 82.992188 221.679688 78.132812 221.679688 C 73.273438 221.679688 69.335938 219.105469 69.335938 215.933594 C 69.335938 212.757812 73.273438 210.183594 78.132812 210.183594 C 82.992188 210.183594 86.929688 212.757812 86.929688 215.933594 " fill-opacity="1" fill-rule="nonzero"/><g clip-path="url(#d2c445f2e2)"><path fill="#9fd9f6" d="M 172.96875 203.800781 C 172.300781 201.652344 171.121094 199.65625 169.839844 197.8125 C 168.457031 195.765625 167.019531 193.71875 165.585938 191.722656 C 165.535156 191.617188 165.433594 191.566406 165.328125 191.464844 C 165.125 190.953125 164.148438 190.851562 163.84375 191.566406 C 163.023438 193.613281 162.148438 195.664062 161.328125 197.710938 C 160.507812 199.707031 159.636719 201.652344 158.972656 203.699219 C 158.355469 205.59375 157.996094 207.640625 158.457031 209.585938 C 158.816406 211.222656 159.792969 212.605469 161.125 213.628906 C 163.789062 215.726562 167.535156 215.726562 170.25 213.679688 C 173.378906 211.375 174.046875 207.433594 172.96875 203.800781 Z M 172.96875 203.800781 " fill-opacity="1" fill-rule="nonzero"/></g><g clip-path="url(#076b8ad127)"><path fill="#9fd9f6" d="M 146.820312 162.75 C 146.203125 161.832031 145.589844 160.960938 144.921875 160.089844 C 144.664062 159.835938 144.410156 159.578125 144.101562 159.527344 C 143.792969 159.476562 143.488281 159.679688 143.332031 159.9375 C 142.101562 161.523438 141.332031 163.777344 140.410156 165.566406 C 138.257812 169.816406 136 174.933594 135.949219 179.746094 C 135.847656 188.394531 147.539062 189.878906 151.742188 184.761719 C 153.535156 182.558594 154.304688 179.847656 153.894531 177.03125 C 153.535156 174.523438 152.460938 172.167969 151.175781 169.96875 C 149.742188 167.5625 148.304688 165.105469 146.820312 162.75 Z M 146.820312 162.75 " fill-opacity="1" fill-rule="nonzero"/></g></svg>