<svg xmlns="http://www.w3.org/2000/svg" xmlns:xlink="http://www.w3.org/1999/xlink" width="500" zoomAndPan="magnify" viewBox="0 0 375 374.999991" height="500" preserveAspectRatio="xMidYMid meet" version="1.0"><defs><clipPath id="ff9e6dadab"><path d="M 221.878906 22.558594 L 323.128906 22.558594 L 323.128906 352.558594 L 221.878906 352.558594 Z M 221.878906 22.558594 " clip-rule="nonzero"/></clipPath></defs><path fill="#5dadec" d="M 153.402344 217.480469 L 135.570312 188.296875 L 119.046875 217.28125 C 115.199219 223.425781 114.863281 231.410156 118.90625 238.027344 C 124.648438 247.429688 137.03125 250.449219 146.558594 244.777344 C 156.082031 239.105469 159.148438 226.890625 153.402344 217.480469 Z M 153.402344 217.480469 " fill-opacity="1" fill-rule="nonzero"/><path fill="#5dadec" d="M 191.707031 271.449219 L 173.875 242.265625 L 157.351562 271.25 C 153.503906 277.394531 153.167969 285.378906 157.207031 291.996094 C 162.953125 301.398438 175.332031 304.417969 184.863281 298.746094 C 194.386719 293.074219 197.453125 280.859375 191.707031 271.449219 Z M 191.707031 271.449219 " fill-opacity="1" fill-rule="nonzero"/><path fill="#5dadec" d="M 225.605469 217.480469 L 207.773438 188.296875 L 191.246094 217.28125 C 187.398438 223.425781 187.0625 231.410156 191.105469 238.027344 C 196.851562 247.429688 209.230469 250.449219 218.757812 244.777344 C 228.285156 239.105469 231.351562 226.890625 225.605469 217.480469 Z M 225.605469 217.480469 " fill-opacity="1" fill-rule="nonzero"/><g clip-path="url(#ff9e6dadab)"><path fill="#e3e2e0" d="M 297.796875 257.75 L 297.796875 48.074219 C 297.796875 34.070312 286.472656 22.714844 272.496094 22.714844 C 258.523438 22.714844 247.191406 34.070312 247.191406 48.074219 L 247.191406 257.75 C 232.074219 266.519531 221.890625 282.894531 221.890625 301.664062 C 221.890625 329.675781 244.550781 352.382812 272.496094 352.382812 C 300.445312 352.382812 323.101562 329.675781 323.101562 301.664062 C 323.101562 282.894531 312.921875 266.519531 297.796875 257.75 " fill-opacity="1" fill-rule="nonzero"/></g><path fill="#c72227" d="M 272.496094 318.703125 C 263.105469 318.703125 255.496094 311.078125 255.496094 301.664062 L 255.496094 111.472656 C 255.496094 102.058594 263.105469 94.429688 272.496094 94.429688 C 281.886719 94.429688 289.5 102.058594 289.5 111.472656 L 289.5 301.664062 C 289.5 311.078125 281.886719 318.703125 272.496094 318.703125 " fill-opacity="1" fill-rule="nonzero"/><path fill="#e72931" d="M 309.007812 301.664062 C 309.007812 321.871094 292.660156 338.253906 272.496094 338.253906 C 252.332031 338.253906 235.988281 321.871094 235.988281 301.664062 C 235.988281 281.457031 252.332031 265.074219 272.496094 265.074219 C 292.660156 265.074219 309.007812 281.457031 309.007812 301.664062 " fill-opacity="1" fill-rule="nonzero"/><path fill="#8ca2ac" d="M 285.148438 140.238281 L 272.496094 140.238281 C 270.617188 140.238281 269.097656 138.710938 269.097656 136.832031 C 269.097656 134.949219 270.617188 133.421875 272.496094 133.421875 L 285.148438 133.421875 C 287.027344 133.421875 288.550781 134.949219 288.550781 136.832031 C 288.550781 138.710938 287.027344 140.238281 285.148438 140.238281 " fill-opacity="1" fill-rule="nonzero"/><path fill="#8ca2ac" d="M 285.148438 114.890625 L 272.496094 114.890625 C 270.617188 114.890625 269.097656 113.363281 269.097656 111.480469 C 269.097656 109.601562 270.617188 108.074219 272.496094 108.074219 L 285.148438 108.074219 C 287.027344 108.074219 288.550781 109.601562 288.550781 111.480469 C 288.550781 113.363281 287.027344 114.890625 285.148438 114.890625 " fill-opacity="1" fill-rule="nonzero"/><path fill="#8ca2ac" d="M 285.148438 89.542969 L 272.496094 89.542969 C 270.617188 89.542969 269.097656 88.015625 269.097656 86.132812 C 269.097656 84.25 270.617188 82.726562 272.496094 82.726562 L 285.148438 82.726562 C 287.027344 82.726562 288.550781 84.25 288.550781 86.132812 C 288.550781 88.015625 287.027344 89.542969 285.148438 89.542969 " fill-opacity="1" fill-rule="nonzero"/><path fill="#8ca2ac" d="M 285.148438 64.191406 L 272.496094 64.191406 C 270.617188 64.191406 269.097656 62.667969 269.097656 60.785156 C 269.097656 58.902344 270.617188 57.375 272.496094 57.375 L 285.148438 57.375 C 287.027344 57.375 288.550781 58.902344 288.550781 60.785156 C 288.550781 62.667969 287.027344 64.191406 285.148438 64.191406 " fill-opacity="1" fill-rule="nonzero"/><path fill="#8ca2ac" d="M 285.148438 165.597656 L 272.496094 165.597656 C 270.617188 165.597656 269.097656 164.074219 269.097656 162.1875 C 269.097656 160.308594 270.617188 158.78125 272.496094 158.78125 L 285.148438 158.78125 C 287.027344 158.78125 288.550781 160.308594 288.550781 162.1875 C 288.550781 164.074219 287.027344 165.597656 285.148438 165.597656 " fill-opacity="1" fill-rule="nonzero"/><path fill="#8ca2ac" d="M 285.148438 190.957031 L 272.496094 190.957031 C 270.617188 190.957031 269.097656 189.429688 269.097656 187.550781 C 269.097656 185.664062 270.617188 184.140625 272.496094 184.140625 L 285.148438 184.140625 C 287.027344 184.140625 288.550781 185.664062 288.550781 187.550781 C 288.550781 189.429688 287.027344 190.957031 285.148438 190.957031 " fill-opacity="1" fill-rule="nonzero"/><path fill="#8ca2ac" d="M 285.148438 216.3125 L 272.496094 216.3125 C 270.617188 216.3125 269.097656 214.789062 269.097656 212.90625 C 269.097656 211.027344 270.617188 209.5 272.496094 209.5 L 285.148438 209.5 C 287.027344 209.5 288.550781 211.027344 288.550781 212.90625 C 288.550781 214.789062 287.027344 216.3125 285.148438 216.3125 " fill-opacity="1" fill-rule="nonzero"/><path fill="#8ca2ac" d="M 285.148438 241.675781 L 272.496094 241.675781 C 270.617188 241.675781 269.097656 240.148438 269.097656 238.265625 C 269.097656 236.386719 270.617188 234.859375 272.496094 234.859375 L 285.148438 234.859375 C 287.027344 234.859375 288.550781 236.386719 288.550781 238.265625 C 288.550781 240.148438 287.027344 241.675781 285.148438 241.675781 " fill-opacity="1" fill-rule="nonzero"/></svg>