<svg xmlns="http://www.w3.org/2000/svg" xmlns:xlink="http://www.w3.org/1999/xlink" width="500" zoomAndPan="magnify" viewBox="0 0 375 374.999991" height="500" preserveAspectRatio="xMidYMid meet" version="1.0"><path fill="#fba486" d="M 328.214844 360.273438 C 322.890625 356.890625 313.859375 358.214844 305.398438 347.121094 C 302.9375 343.886719 301.019531 337.140625 298.054688 337.433594 C 291.171875 322.050781 274.101562 283.160156 271.785156 271.117188 L 254.167969 243.488281 L 251.410156 239.179688 C 253.851562 237.265625 251.769531 234.28125 251.769531 234.28125 L 228.511719 194.84375 C 230.554688 188.875 233.816406 177.863281 235.605469 171.792969 C 235.75 171.792969 235.878906 171.792969 236.003906 171.769531 C 236.003906 171.769531 241.582031 151.914062 242.148438 146.808594 C 242.148438 146.808594 246.570312 142.332031 247.8125 134.011719 C 250 135.335938 251.894531 136.425781 253.515625 137.457031 C 255.453125 138.695312 265.21875 145.1875 275.132812 150.632812 C 278.480469 152.460938 289.71875 154.476562 291.085938 149.453125 C 292.035156 145.964844 291.191406 134.304688 290.035156 120.058594 C 288.941406 106.734375 287.464844 93.414062 286.898438 91.460938 C 286.898438 91.460938 288.730469 77.339844 288.117188 76.164062 C 287.507812 74.984375 280.4375 67.820312 278.816406 67.882812 C 277.195312 67.945312 266.671875 70.71875 265.175781 72.613281 C 263.683594 74.503906 265.957031 77.171875 266.125 78.390625 C 266.292969 79.609375 265.660156 88.453125 266.125 89.945312 C 266.585938 91.4375 273.804688 94.066406 274.3125 94.339844 C 273.804688 95.496094 274.585938 116.316406 274.269531 122.304688 C 274.269531 122.304688 274.058594 123.652344 274.039062 123.902344 C 273.195312 124.574219 265.429688 115.8125 262.417969 112.472656 C 259.410156 109.132812 253.390625 99.800781 246.128906 92.214844 C 241.160156 87.027344 235.035156 84.714844 231.667969 83.769531 L 234.066406 78.179688 C 235.960938 79.144531 237.878906 79.882812 239.644531 80.15625 C 246.042969 81.144531 256.316406 75.53125 259.304688 72.484375 C 259.9375 71.835938 260.589844 70.992188 261.261719 70.027344 C 260.882812 71.835938 261.304688 72.863281 261.261719 73.390625 C 261.242188 73.851562 260.945312 75.511719 261.410156 74.753906 C 262.964844 72.210938 265.304688 63.324219 267.300781 57.019531 C 268.25 53.996094 269.21875 50.171875 270.039062 46.996094 C 272.082031 44.140625 272.964844 40.421875 272.480469 35.230469 C 271.679688 26.910156 266.585938 26.550781 266.585938 26.550781 C 266.585938 26.550781 265.511719 24.175781 262.1875 19.910156 C 261.554688 18.652344 260.292969 17.390625 258.671875 16.359375 C 258.671875 16.359375 254.253906 17.578125 254.253906 17.578125 C 251.390625 15.121094 255.074219 13.039062 250.042969 12.304688 C 249.117188 12.179688 246.023438 10.960938 245.160156 10.898438 C 233.710938 9.027344 226.597656 13.441406 218.050781 22.097656 C 205.820312 34.496094 204.957031 54.140625 204.011719 56.433594 C 203.0625 58.722656 198.832031 60.023438 195.78125 63.847656 C 192.730469 67.671875 185.171875 71.457031 185.953125 75.363281 C 186.582031 78.601562 184.753906 79.292969 183.382812 82.066406 C 176.777344 85.578125 163.683594 92.65625 157.328125 96.796875 C 148.632812 102.46875 134.617188 110.8125 132.722656 113.480469 C 130.828125 116.148438 130.28125 122.160156 131.375 124.828125 C 132.492188 127.496094 166.144531 156.746094 167.304688 158.320312 C 168.3125 159.8125 168.945312 161.472656 169.894531 162.796875 C 171.15625 164.542969 173.976562 166.308594 176.082031 167.628906 C 178.164062 168.953125 183.425781 168.472656 185.742188 167.628906 C 186.269531 167.441406 186.710938 167.148438 187.089844 166.8125 C 185.804688 170.574219 184.414062 174.773438 183.449219 177.714844 C 183.363281 177.695312 183.320312 177.675781 183.320312 177.675781 C 178.648438 181.226562 171.933594 201.859375 170.585938 210.980469 C 169.261719 220.097656 164.503906 232.832031 164.503906 232.832031 C 165.789062 233.421875 165.136719 236.953125 166.777344 237.644531 C 166.105469 238.882812 165.324219 240.269531 164.503906 241.761719 C 159.074219 251.554688 151.179688 265.570312 150.277344 265.863281 C 148.886719 266.328125 138.742188 263.511719 121.019531 256.347656 C 113.820312 253.425781 102.625 249.476562 93.027344 246.574219 C 93.277344 246.386719 93.53125 246.21875 93.804688 246.027344 C 93.804688 246.027344 77.007812 238.378906 75.726562 237.644531 C 74.460938 236.910156 49.035156 260.96875 46.996094 264.605469 C 44.953125 268.238281 45.3125 268.890625 49.203125 267.839844 C 55.289062 266.199219 61.707031 260.988281 75.621094 262.1875 C 79.472656 262.523438 84.628906 264.917969 86.628906 262.777344 C 112.453125 275.109375 149.390625 294.148438 157.789062 292.636719 C 167.894531 290.828125 179.175781 276.832031 182.625 271.9375 C 185.867188 267.355469 190.960938 259.414062 194.792969 253.363281 C 195.738281 251.871094 196.601562 250.503906 197.339844 249.308594 C 200.285156 250.378906 201.632812 249.203125 201.632812 249.203125 C 202.347656 247.984375 204.097656 244.957031 205.949219 241.070312 L 223.984375 258.238281 C 224.574219 257.902344 226.132812 258.550781 228.300781 256.933594 L 232.195312 261.390625 L 246.148438 277.335938 C 246.148438 277.335938 265.828125 325.625 281.65625 343.507812 C 281.507812 343.464844 281.363281 343.445312 281.214844 343.402344 C 281.214844 343.402344 285.277344 363.59375 285.59375 365.023438 C 285.910156 366.453125 325.101562 367.902344 329.183594 366.957031 C 333.246094 366.011719 331.605469 362.4375 328.214844 360.273438 Z M 186.730469 148.570312 C 186.015625 147.605469 179.933594 147.121094 176.605469 146.933594 C 176.605469 146.933594 154.71875 125.3125 153.832031 124.03125 C 152.949219 122.746094 153.285156 121.296875 154.445312 120.246094 C 155.222656 119.554688 171.660156 112.285156 182.667969 107.34375 C 182.710938 109.425781 184.4375 110.328125 184.964844 112.914062 C 185.574219 116.003906 185.003906 121.023438 186.101562 123.964844 C 187.636719 132.601562 192.730469 146.597656 192.265625 149.894531 C 191.71875 153.785156 190.035156 158.761719 190.035156 158.761719 C 190.015625 158.828125 189.972656 158.890625 189.929688 158.972656 C 189.339844 155.171875 187.445312 149.558594 186.730469 148.59375 Z M 186.730469 148.570312 " fill-opacity="1" fill-rule="nonzero"/><path fill="#dd4e4e" d="M 224.722656 110.328125 C 223.460938 103.164062 227.078125 86.5 229.121094 83.203125 C 226.765625 82.71875 218.871094 82.800781 210.703125 81.710938 C 207.925781 81.332031 205.128906 80.847656 202.433594 80.40625 C 202.371094 80.871094 202.347656 81.351562 202.433594 81.898438 C 202.917969 85.578125 198.707031 93.289062 194.6875 96.714844 C 190.667969 100.136719 191.445312 99.003906 192.773438 103.585938 C 194.117188 108.164062 192.097656 111.507812 191.046875 116.359375 C 189.992188 121.214844 193.234375 125.605469 190.941406 129.136719 C 189.574219 131.238281 187.699219 128.296875 186.078125 123.964844 C 187.617188 132.601562 191.65625 146.660156 191.195312 149.9375 C 190.644531 153.824219 190.015625 158.742188 190.015625 158.742188 C 190.015625 158.742188 225.5 172.652344 235.984375 171.75 C 235.984375 171.75 241.5625 151.890625 242.128906 146.785156 C 242.128906 146.785156 246.550781 142.308594 247.792969 133.988281 C 245.265625 132.457031 242.320312 130.648438 238.910156 128.316406 C 231.015625 122.9375 225.964844 117.472656 224.703125 110.308594 Z M 224.722656 110.328125 " fill-opacity="1" fill-rule="nonzero"/><path fill="#18233f" d="M 228.300781 194.527344 L 255.429688 236.027344 C 255.429688 236.027344 253.851562 237.265625 251.410156 239.179688 C 245.519531 243.78125 234.53125 252.3125 228.320312 256.933594 C 226.152344 258.550781 224.554688 259.6875 223.964844 260.023438 L 206.160156 243.003906 C 204.304688 246.890625 202.875 249.789062 202.136719 251.007812 C 202.136719 251.007812 200.285156 250.359375 197.339844 249.285156 C 190.058594 246.660156 176.082031 241.511719 166.777344 237.601562 C 165.136719 236.910156 163.664062 236.257812 162.359375 235.667969 C 162.359375 235.667969 165.261719 218.984375 166.589844 209.867188 C 167.914062 200.746094 178.605469 181.183594 183.300781 177.613281 C 183.300781 177.613281 213.820312 186.058594 228.300781 194.507812 Z M 330.886719 359.246094 C 325.5625 355.863281 316.027344 354.769531 307.546875 343.675781 C 304.976562 340.3125 300.664062 336.886719 297.675781 337.496094 C 294.664062 338.128906 293.90625 346.449219 281.214844 343.421875 C 281.214844 343.421875 281.066406 366.242188 281.382812 367.671875 C 281.699219 369.101562 327.984375 369.226562 332.046875 368.28125 C 336.109375 367.335938 334.277344 361.410156 330.886719 359.246094 Z M 41.183594 266.808594 C 39.144531 270.445312 44.785156 273.070312 48.65625 272.023438 C 54.738281 270.382812 61.980469 264.058594 75.894531 265.253906 C 80.125 265.613281 85.554688 264.75 87.113281 262.105469 C 88.667969 259.457031 83.027344 253.300781 93.785156 245.964844 C 93.785156 245.964844 76.988281 230.5 75.703125 229.785156 C 74.441406 229.050781 43.207031 263.175781 41.164062 266.808594 Z M 257.242188 52.585938 C 255.832031 52.25 254.273438 53.699219 253.746094 55.800781 C 253.222656 57.921875 253.9375 59.898438 255.347656 60.234375 C 256.757812 60.570312 258.316406 59.121094 258.839844 57.019531 C 259.367188 54.898438 258.652344 52.921875 257.242188 52.585938 Z M 238.71875 56.285156 C 240.128906 56.621094 241.6875 55.171875 242.214844 53.070312 C 242.738281 50.949219 242.023438 48.972656 240.613281 48.636719 C 239.203125 48.300781 237.644531 49.75 237.121094 51.851562 C 236.59375 53.972656 237.308594 55.949219 238.71875 56.285156 Z M 254.378906 48.804688 C 254.421875 48.804688 254.484375 48.804688 254.527344 48.804688 C 260.0625 46.34375 262.546875 49.601562 262.652344 49.75 C 262.714844 49.855469 262.859375 49.875 262.964844 49.792969 C 263.070312 49.730469 263.09375 49.582031 263.007812 49.476562 C 262.988281 49.433594 260.230469 45.777344 254.335938 48.382812 C 254.230469 48.425781 254.167969 48.574219 254.230469 48.679688 C 254.253906 48.742188 254.316406 48.78125 254.378906 48.804688 Z M 237.332031 42.859375 C 237.203125 42.859375 237.121094 42.984375 237.121094 43.089844 C 237.121094 43.214844 237.246094 43.296875 237.351562 43.296875 C 243.414062 42.792969 244.613281 46.703125 244.675781 46.871094 C 244.695312 46.953125 244.761719 46.996094 244.84375 47.019531 C 244.886719 47.019531 244.929688 47.019531 244.949219 47.019531 C 245.074219 46.976562 245.140625 46.871094 245.097656 46.746094 C 245.097656 46.703125 243.75 42.332031 237.308594 42.859375 Z M 245.203125 63.28125 C 245.074219 63.261719 244.96875 63.34375 244.949219 63.449219 C 244.929688 63.554688 244.992188 63.679688 245.117188 63.703125 C 245.203125 63.703125 247.433594 64.101562 248.316406 63.09375 C 249.203125 62.0625 247.371094 59.519531 247.160156 59.226562 C 247.097656 59.121094 246.949219 59.101562 246.84375 59.183594 C 246.738281 59.246094 246.71875 59.394531 246.800781 59.5 C 247.515625 60.488281 248.464844 62.253906 247.980469 62.820312 C 247.390625 63.492188 245.769531 63.386719 245.203125 63.28125 Z M 240.320312 67.335938 C 240.296875 67.316406 240.257812 67.296875 240.214844 67.273438 C 240.128906 67.273438 240.046875 67.273438 240.003906 67.335938 C 239.917969 67.421875 239.917969 67.570312 240.003906 67.652344 C 244.382812 71.707031 249.8125 70.007812 249.855469 69.984375 C 249.980469 69.941406 250.042969 69.816406 250 69.710938 C 249.957031 69.605469 249.832031 69.542969 249.726562 69.566406 C 249.683594 69.566406 244.507812 71.203125 240.320312 67.316406 Z M 268.332031 24.746094 C 268.332031 24.746094 267.21875 20.585938 263.894531 16.339844 C 263.261719 15.078125 262.207031 13.902344 260.566406 12.871094 C 257.703125 10.414062 253.894531 8.355469 248.863281 7.621094 C 247.9375 7.492188 247.054688 7.410156 246.191406 7.347656 C 234.742188 5.476562 222.976562 9.109375 214.429688 17.769531 C 202.203125 30.164062 201 51.285156 200.035156 53.574219 C 199.085938 55.863281 193.78125 56.9375 190.730469 60.761719 C 187.679688 64.585938 185.132812 71.414062 185.890625 75.320312 C 186.648438 79.230469 183.785156 79.417969 182.542969 84.105469 C 181.300781 88.769531 181.785156 95.640625 182.542969 98.414062 C 183.300781 101.1875 181.871094 106.714844 183.40625 114.34375 C 184.015625 117.429688 185.003906 121.023438 186.101562 123.964844 C 187.71875 128.296875 189.59375 131.238281 190.960938 129.136719 C 193.257812 125.605469 190.015625 121.214844 191.066406 116.359375 C 192.121094 111.507812 194.117188 108.164062 192.792969 103.585938 C 191.445312 99.003906 190.6875 100.160156 194.707031 96.714844 C 198.726562 93.289062 202.917969 85.597656 202.453125 81.898438 C 202.390625 81.351562 202.390625 80.847656 202.453125 80.40625 C 202.855469 77.800781 205.359375 76.605469 208.367188 75.636719 C 213.484375 74.019531 218.746094 69.480469 220.871094 66.285156 C 219.082031 62.671875 218.367188 58.554688 218.113281 55.191406 C 216.410156 53.449219 214.007812 50.253906 214.15625 46.074219 C 214.28125 42.648438 215.964844 40.253906 217.945312 39.558594 C 219.714844 38.949219 221.691406 39.683594 222.996094 42.269531 L 222.007812 46.683594 C 222.933594 44.644531 224.089844 41.386719 225.101562 39.453125 C 226.679688 36.492188 233.289062 35.417969 233.289062 35.417969 C 246.316406 42.457031 257.957031 35.082031 258.628906 34.894531 C 259.304688 34.726562 261.535156 39.347656 264.082031 42.519531 C 265.472656 44.265625 265.933594 46.578125 265.957031 48.910156 C 265.957031 48.953125 265.957031 49.015625 265.957031 49.054688 C 265.957031 49.390625 265.957031 49.75 265.933594 50.085938 C 265.828125 50.570312 265.703125 51.074219 265.578125 51.597656 C 265.578125 51.660156 265.535156 51.746094 265.535156 51.808594 C 265.15625 53.386719 264.753906 55.066406 264.355469 56.746094 C 263.21875 61.347656 261.976562 66.558594 261.242188 70.007812 C 260.863281 71.8125 260.609375 73.136719 260.566406 73.660156 C 260.546875 74.125 260.882812 76.035156 261.347656 75.28125 C 262.902344 72.738281 266.144531 63.492188 268.144531 57.1875 C 269.089844 54.164062 270.101562 50.210938 270.921875 47.039062 C 272.964844 44.179688 275.382812 40.1875 274.878906 34.976562 C 274.078125 26.65625 268.3125 24.722656 268.3125 24.722656 Z M 218.683594 49.960938 C 218.765625 49.832031 218.746094 49.644531 218.617188 49.5625 C 218.617188 49.5625 217.101562 48.425781 217.230469 46.765625 C 217.355469 45.125 219.1875 44.433594 219.1875 44.414062 C 219.335938 44.347656 219.417969 44.179688 219.355469 44.035156 C 219.292969 43.886719 219.125 43.804688 218.976562 43.867188 C 218.890625 43.90625 216.808594 44.6875 216.640625 46.703125 C 216.472656 48.699219 218.199219 49.960938 218.261719 50.023438 C 218.304688 50.066406 218.367188 50.085938 218.429688 50.085938 C 218.511719 50.085938 218.597656 50.042969 218.660156 49.960938 Z M 218.683594 49.960938 " fill-opacity="1" fill-rule="nonzero"/><path fill="#f4e8dc" d="M 257.199219 55.570312 C 256.96875 56.496094 256.273438 57.144531 255.640625 57 C 255.011719 56.851562 254.695312 55.96875 254.925781 55.042969 C 255.15625 54.121094 255.851562 53.46875 256.484375 53.617188 C 257.113281 53.761719 257.429688 54.644531 257.199219 55.570312 Z M 241.078125 50.296875 C 240.445312 50.148438 239.75 50.78125 239.519531 51.726562 C 239.289062 52.648438 239.601562 53.53125 240.234375 53.679688 C 240.867188 53.824219 241.5625 53.195312 241.792969 52.25 C 242.023438 51.324219 241.707031 50.441406 241.078125 50.296875 Z M 241.078125 50.296875 " fill-opacity="1" fill-rule="nonzero"/><path fill="#d87155" d="M 231.394531 84.316406 C 230.574219 83.035156 229.417969 78.9375 228.40625 74.839844 C 230.40625 76.308594 232.40625 77.421875 234.027344 78.199219 Z M 164.484375 241.699219 C 173.238281 242.8125 188.140625 249.980469 194.773438 253.339844 C 195.71875 251.847656 196.582031 250.484375 197.316406 249.285156 C 190.035156 246.660156 176.058594 241.511719 166.757812 237.601562 C 166.082031 238.84375 165.304688 240.230469 164.484375 241.722656 Z M 274.25 122.472656 C 274.25 122.371094 274.25 122.328125 274.25 122.328125 C 274.25 122.328125 274.039062 123.671875 274.015625 123.925781 C 273.972656 124.15625 273.804688 126.195312 273.804688 127.664062 C 273.804688 129.136719 274.015625 130.019531 274.585938 129.660156 C 275.109375 129.34375 274.394531 123.484375 274.269531 122.472656 Z M 228.300781 256.933594 L 232.195312 261.390625 C 239.6875 254.328125 249.03125 247.246094 254.148438 243.488281 L 251.390625 239.179688 C 245.496094 243.78125 234.511719 252.3125 228.300781 256.933594 Z M 228.300781 256.933594 " fill-opacity="1" fill-rule="nonzero"/></svg>