<svg xmlns="http://www.w3.org/2000/svg" xmlns:xlink="http://www.w3.org/1999/xlink" width="500" zoomAndPan="magnify" viewBox="0 0 375 374.999991" height="500" preserveAspectRatio="xMidYMid meet" version="1.0"><defs><clipPath id="1a953a9e05"><path d="M 20.902344 14.066406 L 354.246094 14.066406 L 354.246094 360.566406 L 20.902344 360.566406 Z M 20.902344 14.066406 " clip-rule="nonzero"/></clipPath></defs><path fill="#f4725c" d="M 201.253906 316.984375 C 196.171875 315.53125 191.757812 311.792969 189.632812 309.753906 C 189.632812 309.757812 189.632812 309.753906 189.632812 309.757812 C 189.632812 309.757812 186.808594 315.261719 185.304688 316.320312 C 183.804688 317.382812 178.277344 319.285156 174.945312 321 C 171.605469 322.710938 164.082031 323.398438 163.320312 323.816406 C 162.554688 324.234375 162.082031 327.375 166.082031 328.417969 C 170.082031 329.464844 183.566406 328.894531 185.304688 329.371094 C 187.046875 329.84375 196.90625 331.742188 200.21875 330.699219 C 200.21875 330.699219 200.789062 324.660156 199.347656 321.257812 L 201.253906 316.988281 Z M 132.605469 167.65625 C 132.09375 167.484375 163.097656 146.03125 178.640625 128.019531 C 178.128906 127.804688 177.621094 127.570312 177.117188 127.324219 C 177.632812 126.753906 178.136719 126.179688 178.625 125.617188 C 172.699219 123.140625 167.21875 118.316406 164.375 115.546875 C 153.707031 128.351562 129.058594 157.660156 126.902344 157.746094 C 124.148438 157.855469 116.566406 158.199219 115.703125 159.402344 C 115.183594 160.128906 114.980469 163.101562 115.085938 165.953125 C 115.019531 168.53125 115.230469 171.59375 115.722656 173.160156 C 116.582031 175.914062 120.203125 176.945312 121.753906 175.914062 C 122.730469 175.261719 123.09375 175.023438 123.226562 174.933594 C 123.230469 175.195312 123.242188 175.453125 123.261719 175.703125 C 123.203125 177.054688 123.1875 179.617188 123.820312 179.871094 C 124.679688 180.214844 131.574219 171.097656 132.261719 170.066406 C 132.953125 169.03125 133.125 167.828125 132.605469 167.65625 Z M 158.847656 44.820312 C 158.847656 45.066406 159.574219 45.476562 160.054688 45.5 C 160.535156 45.515625 162.289062 45.292969 162.339844 45.46875 C 162.648438 46.574219 162.242188 48.3125 162.230469 48.371094 C 162.109375 49.125 162.667969 49.335938 163.472656 49.527344 C 163.472656 49.527344 162.835938 50.851562 163.171875 51.328125 C 163.511719 51.796875 164.605469 52.042969 164.691406 52.589844 C 164.777344 53.140625 164.546875 55.296875 164.941406 56.046875 C 166.113281 58.257812 173.898438 56.359375 174.261719 56.683594 C 177.226562 63.152344 178.175781 72.578125 178.175781 72.578125 L 191.710938 57.308594 C 191.710938 57.308594 187.972656 54.457031 185.390625 48.578125 C 190.125 39.121094 182.546875 40.066406 182.546875 40.066406 C 177.816406 41.011719 177.816406 36.285156 172.132812 35.339844 C 166.449219 34.390625 162.1875 28.128906 162.1875 28.128906 C 162.1875 28.128906 161.386719 33.402344 161.589844 34.328125 C 161.792969 35.253906 162.289062 36.46875 162.121094 37.214844 C 161.71875 39.007812 158.847656 43.9375 158.847656 44.820312 Z M 232.542969 260.097656 L 227.703125 259.554688 C 228.707031 255.644531 229.300781 252.03125 229.285156 248.976562 C 230.90625 252.460938 232.332031 256.464844 232.542969 260.097656 " fill-opacity="1" fill-rule="nonzero"/><path fill="#f89f35" d="M 123.839844 174.519531 C 123.839844 174.519531 126.003906 173.171875 126.035156 171.246094 C 126.035156 171.246094 126.875 173.605469 123.839844 174.519531 Z M 259.949219 125.152344 C 250.644531 114.65625 206.175781 62.519531 202.648438 60.109375 C 199.121094 57.703125 190.863281 56.652344 190.863281 56.652344 C 190.863281 56.652344 187.40625 56.328125 184.476562 58.734375 C 181.542969 61.140625 178.097656 71.125 177.929688 75.25 C 177.863281 76.820312 177.804688 80.296875 177.8125 84.113281 C 173.5 96.550781 162.941406 112.167969 162.347656 113.457031 C 162.347656 113.457031 162.664062 113.8125 163.234375 114.398438 C 162.761719 115.160156 162.453125 115.671875 162.363281 115.863281 C 162.363281 115.863281 172.066406 126.703125 181.890625 129.109375 C 181.890625 129.109375 188.480469 120.351562 194.238281 109.914062 C 201.761719 115.175781 209.296875 120.6875 209.898438 122.660156 C 211.105469 126.617188 210.320312 128.226562 212.925781 130.121094 C 215.53125 132.015625 213.472656 134.972656 213.300781 135.660156 C 213.125 136.347656 212.832031 141 213.886719 143.410156 C 214.941406 145.816406 212.144531 150.121094 213.886719 154.421875 C 213.886719 154.421875 233.070312 168.6875 270.289062 153.199219 C 270.289062 153.199219 269.257812 135.652344 259.949219 125.152344 Z M 288.035156 296.851562 C 282.554688 286.117188 259.144531 244.601562 241.8125 214.15625 L 210.816406 307.238281 C 233.78125 304.109375 275.847656 298.394531 288.035156 296.851562 Z M 208.949219 298.15625 L 215.332031 278.984375 L 217.820312 271.503906 L 217.785156 271.609375 L 237.804688 211.496094 L 122.878906 211.496094 C 122.464844 212.417969 122.050781 213.335938 121.628906 214.269531 L 118.597656 221 C 128.417969 229.371094 193.449219 284.917969 208.949219 298.15625 Z M 293.425781 299.929688 L 291.398438 301.09375 C 289.277344 301.253906 230.03125 309.296875 207.386719 312.386719 L 207.160156 310.730469 L 205 310.011719 L 207.363281 302.917969 C 198.730469 295.558594 126.199219 233.585938 116.617188 225.398438 C 101.449219 259.054688 85.132812 295.300781 84.570312 296.703125 L 80.199219 295.144531 C 80.5 294.25 104.691406 240.542969 120.804688 204.808594 L 125.894531 204.808594 C 125.574219 205.515625 125.246094 206.246094 124.921875 206.96875 L 239.3125 206.96875 L 249.382812 176.726562 L 253.789062 178.1875 L 243.78125 208.238281 C 246.269531 212.601562 257.527344 232.386719 268.605469 252.066406 C 275.9375 265.09375 281.757812 275.527344 285.894531 283.070312 C 294.3125 298.410156 294.257812 298.496094 293.425781 299.929688 Z M 164.394531 117.945312 C 153.722656 130.75 129.074219 160.0625 126.917969 160.148438 C 124.164062 160.253906 116.582031 160.597656 115.722656 161.804688 C 115.722656 161.804688 117.34375 160.136719 126.460938 159.425781 C 126.460938 159.425781 132.753906 153.796875 146.84375 137.625 C 160.621094 121.800781 164.394531 117.945312 164.394531 117.945312 " fill-opacity="1" fill-rule="nonzero"/><path fill="#6a6b6c" d="M 267.8125 154.1875 C 244.703125 163.179688 228.863281 160.601562 220.605469 157.675781 C 219.734375 160.253906 215.738281 180.332031 215.257812 192.28125 C 214.742188 205.105469 207.023438 232.488281 207.28125 238.324219 C 207.542969 244.160156 199.011719 277.191406 197.621094 282.242188 C 196.230469 287.292969 187.890625 303.816406 188.28125 308.378906 C 188.28125 308.378906 195.871094 316.917969 204.332031 317.550781 C 204.332031 317.550781 206.296875 314.296875 206.144531 313.523438 C 205.988281 312.746094 206.144531 311.582031 206.144531 311.582031 C 206.144531 311.582031 208.019531 310.558594 207.78125 308.054688 C 207.542969 305.554688 230.15625 265.921875 229.257812 248.042969 C 229.257812 248.042969 230.914062 245.167969 230.222656 242.621094 C 229.777344 240.988281 230.324219 239.972656 230.765625 239.457031 C 231.089844 239.082031 231.359375 238.675781 231.527344 238.214844 C 233.414062 233.011719 243.855469 204.53125 250.738281 193.253906 C 258.328125 180.816406 269.128906 167.195312 267.8125 154.1875 Z M 345.296875 298.207031 C 345.246094 291.65625 343.992188 285.390625 341.753906 279.609375 L 301.796875 295.34375 C 302.113281 296.246094 302.296875 297.210938 302.339844 298.207031 Z M 345.296875 299.078125 L 302.339844 299.078125 C 302.292969 300.199219 302.0625 301.269531 301.683594 302.265625 L 341.085938 319.351562 C 343.75 313.113281 345.242188 306.265625 345.296875 299.078125 Z M 340.726562 320.144531 L 301.332031 303.0625 C 300.902344 303.945312 300.347656 304.753906 299.6875 305.472656 L 330.046875 335.785156 C 334.484375 331.28125 338.117188 325.988281 340.726562 320.144531 Z M 329.429688 336.402344 L 299.070312 306.085938 C 298.269531 306.820312 297.355469 307.429688 296.347656 307.878906 L 312.109375 347.769531 C 318.621094 345.132812 324.5 341.246094 329.429688 336.402344 Z M 311.300781 348.089844 L 295.539062 308.191406 C 294.632812 308.503906 293.671875 308.691406 292.671875 308.734375 L 292.671875 351.632812 C 299.230469 351.578125 305.507812 350.328125 311.300781 348.089844 Z M 291.800781 351.632812 L 291.800781 308.734375 C 290.679688 308.683594 289.605469 308.457031 288.605469 308.074219 L 271.492188 347.425781 C 277.742188 350.082031 284.601562 351.570312 291.800781 351.632812 Z M 270.703125 347.066406 L 287.808594 307.730469 C 286.925781 307.296875 286.117188 306.742188 285.398438 306.085938 L 255.039062 336.402344 C 259.546875 340.832031 264.847656 344.460938 270.703125 347.066406 Z M 254.421875 335.785156 L 284.78125 305.472656 C 284.046875 304.671875 283.4375 303.757812 282.988281 302.753906 L 243.035156 318.488281 C 245.675781 324.992188 249.566406 330.859375 254.421875 335.785156 Z M 242.714844 317.679688 L 282.671875 301.941406 C 282.359375 301.039062 282.175781 300.078125 282.128906 299.078125 L 239.171875 299.078125 C 239.222656 305.628906 240.476562 311.894531 242.714844 317.679688 Z M 239.171875 298.207031 L 282.128906 298.207031 C 282.179688 297.085938 282.40625 296.019531 282.789062 295.019531 L 243.378906 277.933594 C 240.71875 284.171875 239.226562 291.019531 239.171875 298.207031 Z M 243.742188 277.140625 L 283.136719 294.222656 C 283.566406 293.339844 284.125 292.53125 284.78125 291.8125 L 254.421875 261.496094 C 249.984375 266.003906 246.351562 271.292969 243.742188 277.140625 Z M 255.039062 260.882812 L 285.398438 291.199219 C 286.195312 290.464844 287.113281 289.855469 288.121094 289.40625 L 272.363281 249.511719 C 265.847656 252.152344 259.972656 256.035156 255.039062 260.882812 Z M 273.171875 249.191406 L 288.933594 289.09375 C 289.835938 288.78125 290.796875 288.59375 291.800781 288.550781 L 291.800781 245.65625 C 285.238281 245.707031 278.964844 246.957031 273.171875 249.191406 Z M 292.671875 245.65625 L 292.671875 288.550781 C 293.792969 288.601562 294.863281 288.828125 295.863281 289.210938 L 312.976562 249.859375 C 306.726562 247.203125 299.867188 245.714844 292.671875 245.65625 Z M 313.769531 250.21875 L 296.660156 289.558594 C 297.542969 289.988281 298.355469 290.542969 299.070312 291.199219 L 329.429688 260.882812 C 324.917969 256.453125 319.621094 252.824219 313.769531 250.21875 Z M 330.046875 261.5 L 299.6875 291.8125 C 300.425781 292.613281 301.035156 293.53125 301.484375 294.535156 L 341.433594 278.796875 C 338.792969 272.292969 334.902344 266.425781 330.046875 261.5 Z M 351.925781 298.207031 L 351.925781 299.078125 L 349.59375 299.078125 C 349.535156 306.871094 347.917969 314.296875 345.023438 321.0625 L 347.160156 321.988281 L 346.8125 322.785156 L 344.664062 321.855469 C 341.839844 328.195312 337.898438 333.933594 333.085938 338.816406 L 334.753906 340.484375 L 334.132812 341.097656 L 332.46875 339.433594 C 327.121094 344.691406 320.75 348.90625 313.683594 351.761719 L 314.542969 353.933594 L 313.730469 354.25 L 312.875 352.082031 C 306.59375 354.507812 299.785156 355.867188 292.671875 355.917969 L 292.671875 358.25 L 291.800781 358.25 L 291.800781 355.917969 C 283.996094 355.863281 276.558594 354.246094 269.78125 351.359375 L 268.855469 353.488281 L 268.058594 353.140625 L 268.992188 351 C 262.640625 348.175781 256.890625 344.242188 252 339.433594 L 250.335938 341.097656 L 249.71875 340.484375 L 251.386719 338.820312 C 246.117188 333.480469 241.898438 327.117188 239.039062 320.0625 L 236.867188 320.917969 L 236.546875 320.109375 L 238.71875 319.253906 C 236.289062 312.984375 234.929688 306.183594 234.875 299.078125 L 232.542969 299.078125 L 232.542969 298.207031 L 234.875 298.207031 C 234.933594 290.414062 236.550781 282.984375 239.441406 276.222656 L 237.308594 275.296875 L 237.65625 274.503906 L 239.800781 275.429688 C 242.628906 269.089844 246.570312 263.347656 251.386719 258.464844 L 249.71875 256.800781 L 250.335938 256.1875 L 252 257.851562 C 257.347656 252.589844 263.722656 248.378906 270.785156 245.523438 L 269.929688 243.351562 L 270.738281 243.035156 L 271.597656 245.203125 C 277.878906 242.777344 284.683594 241.417969 291.800781 241.367188 L 291.800781 239.039062 L 292.671875 239.039062 L 292.671875 241.367188 C 300.476562 241.425781 307.914062 243.042969 314.6875 245.925781 L 315.613281 243.796875 L 316.410156 244.144531 L 315.480469 246.285156 C 321.828125 249.109375 327.578125 253.042969 332.46875 257.851562 L 334.132812 256.1875 L 334.753906 256.800781 L 333.082031 258.46875 C 338.347656 263.808594 342.570312 270.167969 345.429688 277.222656 L 347.605469 276.367188 L 347.925781 277.175781 L 345.75 278.03125 C 348.179688 284.304688 349.539062 291.101562 349.59375 298.207031 Z M 135.980469 295.175781 C 135.925781 288.625 134.671875 282.359375 132.4375 276.574219 L 92.476562 292.3125 C 92.792969 293.214844 92.976562 294.175781 93.019531 295.175781 Z M 135.980469 296.046875 L 93.019531 296.046875 C 92.972656 297.164062 92.742188 298.238281 92.359375 299.230469 L 131.765625 316.320312 C 134.433594 310.082031 135.921875 303.230469 135.980469 296.046875 Z M 131.410156 317.113281 L 92.015625 300.03125 C 91.582031 300.914062 91.027344 301.722656 90.367188 302.4375 L 120.726562 332.753906 C 125.164062 328.25 128.796875 322.957031 131.410156 317.113281 Z M 120.113281 333.371094 L 89.753906 303.054688 C 88.949219 303.789062 88.039062 304.394531 87.027344 304.84375 L 102.789062 344.738281 C 109.304688 342.101562 115.179688 338.214844 120.113281 333.371094 Z M 101.980469 345.058594 L 86.222656 305.160156 C 85.316406 305.472656 84.351562 305.65625 83.351562 305.699219 L 83.351562 348.597656 C 89.910156 348.546875 96.1875 347.292969 101.980469 345.058594 Z M 82.480469 348.597656 L 82.480469 305.699219 C 81.359375 305.652344 80.285156 305.425781 79.289062 305.042969 L 62.175781 344.394531 C 68.421875 347.050781 75.285156 348.539062 82.480469 348.597656 Z M 61.378906 344.035156 L 78.488281 304.695312 C 77.605469 304.261719 76.796875 303.710938 76.078125 303.054688 L 45.71875 333.371094 C 50.226562 337.796875 55.527344 341.429688 61.378906 344.035156 Z M 45.101562 332.753906 L 75.460938 302.4375 C 74.726562 301.636719 74.117188 300.722656 73.667969 299.71875 L 33.714844 315.453125 C 36.355469 321.960938 40.25 327.828125 45.101562 332.753906 Z M 33.394531 314.648438 L 73.351562 298.910156 C 73.039062 298.003906 72.851562 297.042969 72.808594 296.046875 L 29.851562 296.046875 C 29.902344 302.597656 31.15625 308.863281 33.394531 314.648438 Z M 29.851562 295.175781 L 72.808594 295.175781 C 72.859375 294.054688 73.085938 292.984375 73.46875 291.988281 L 34.0625 274.898438 C 31.402344 281.140625 29.910156 287.988281 29.851562 295.175781 Z M 34.421875 274.105469 L 73.820312 291.191406 C 74.25 290.308594 74.800781 289.5 75.460938 288.78125 L 45.101562 258.464844 C 40.664062 262.96875 37.03125 268.261719 34.421875 274.105469 Z M 45.71875 257.851562 L 76.078125 288.167969 C 76.878906 287.433594 77.792969 286.824219 78.800781 286.375 L 63.042969 246.480469 C 56.527344 249.117188 50.652344 253.003906 45.71875 257.851562 Z M 63.851562 246.160156 L 79.613281 286.058594 C 80.515625 285.746094 81.480469 285.5625 82.480469 285.519531 L 82.480469 242.621094 C 75.917969 242.675781 69.644531 243.925781 63.851562 246.160156 Z M 83.351562 242.621094 L 83.351562 285.519531 C 84.472656 285.570312 85.546875 285.796875 86.542969 286.179688 L 103.65625 246.828125 C 97.410156 244.171875 90.546875 242.679688 83.351562 242.621094 Z M 104.449219 247.1875 L 87.339844 286.523438 C 88.222656 286.953125 89.035156 287.507812 89.753906 288.167969 L 120.113281 257.851562 C 115.601562 253.421875 110.300781 249.792969 104.449219 247.1875 Z M 120.726562 258.464844 L 90.367188 288.78125 C 91.101562 289.582031 91.714844 290.496094 92.164062 291.503906 L 132.117188 275.765625 C 129.472656 269.257812 125.582031 263.394531 120.726562 258.464844 Z M 142.609375 295.175781 L 142.609375 296.046875 L 140.273438 296.046875 C 140.21875 303.839844 138.597656 311.265625 135.707031 318.027344 L 137.839844 318.953125 L 137.492188 319.753906 L 135.34375 318.820312 C 132.519531 325.164062 128.578125 330.902344 123.765625 335.785156 L 125.429688 337.453125 L 124.816406 338.0625 L 123.148438 336.402344 C 117.804688 341.660156 111.429688 345.875 104.363281 348.730469 L 105.222656 350.898438 L 104.414062 351.21875 L 103.554688 349.046875 C 97.277344 351.476562 90.464844 352.832031 83.351562 352.886719 L 83.351562 355.214844 L 82.480469 355.214844 L 82.480469 352.886719 C 74.675781 352.832031 67.234375 351.214844 60.464844 348.324219 L 59.539062 350.457031 L 58.742188 350.109375 L 59.671875 347.964844 C 53.320312 345.140625 47.570312 341.210938 42.683594 336.402344 L 41.011719 338.0625 L 40.398438 337.453125 L 42.066406 335.785156 C 36.800781 330.445312 32.578125 324.085938 29.71875 317.027344 L 27.546875 317.886719 L 27.226562 317.074219 L 29.398438 316.21875 C 26.96875 309.949219 25.609375 303.152344 25.554688 296.046875 L 23.222656 296.046875 L 23.222656 295.175781 L 25.554688 295.175781 C 25.613281 287.382812 27.230469 279.953125 30.125 273.191406 L 27.992188 272.265625 L 28.335938 271.46875 L 30.484375 272.398438 C 33.308594 266.054688 37.25 260.316406 42.066406 255.4375 L 40.398438 253.769531 L 41.011719 253.15625 L 42.683594 254.820312 C 48.03125 249.5625 54.398438 245.347656 61.464844 242.492188 L 60.609375 240.320312 L 61.417969 240 L 62.273438 242.171875 C 68.554688 239.746094 75.363281 238.386719 82.480469 238.332031 L 82.480469 236.003906 L 83.351562 236.003906 L 83.351562 238.332031 C 91.15625 238.390625 98.59375 240.007812 105.367188 242.894531 L 106.296875 240.765625 L 107.09375 241.109375 L 106.160156 243.253906 C 112.511719 246.074219 118.257812 250.011719 123.148438 254.820312 L 124.816406 253.15625 L 125.429688 253.769531 L 123.765625 255.433594 C 129.027344 260.773438 133.25 267.136719 136.109375 274.191406 L 138.285156 273.335938 L 138.605469 274.144531 L 136.429688 275 C 138.863281 281.273438 140.222656 288.070312 140.277344 295.175781 Z M 130.960938 171.832031 L 136.371094 174.847656 C 138.328125 175.9375 139.085938 178.371094 138.097656 180.378906 L 137.8125 180.957031 L 126.558594 203.808594 L 122.691406 201.171875 L 132.359375 181.523438 C 133.140625 179.941406 132.542969 178.019531 130.996094 177.160156 L 128.070312 175.527344 C 129.125 174.230469 130.171875 172.878906 130.960938 171.832031 " fill-opacity="1" fill-rule="nonzero"/><path fill="#8c4b2d" d="M 178.265625 85.199219 C 175.488281 95.335938 163.234375 114.398438 163.234375 114.398438 C 176.753906 97.226562 178.265625 85.199219 178.265625 85.199219 Z M 190.074219 66.324219 C 179.585938 75.460938 179.585938 82.957031 179.585938 82.957031 C 180.097656 77.003906 190.074219 66.324219 190.074219 66.324219 Z M 221.023438 87.683594 C 220.507812 95.589844 206.089844 103.65625 206.832031 103.289062 C 221.222656 96.191406 221.023438 87.683594 221.023438 87.683594 Z M 195.382812 66.324219 C 199.667969 70.125 203.441406 80.082031 202.648438 87.269531 C 201.859375 94.457031 195.382812 107.789062 195.382812 107.789062 C 213.445312 80.96875 195.382812 66.324219 195.382812 66.324219 Z M 221.949219 145.695312 C 219.046875 145.949219 215.777344 144.257812 215.777344 144.257812 C 217.628906 147.75 221.949219 145.695312 221.949219 145.695312 Z M 218.144531 152.308594 C 218.144531 152.308594 220.613281 152.988281 221.949219 151.445312 C 223.285156 149.90625 226.574219 143.027344 231.617188 140.5625 C 231.617188 140.5625 226.972656 142.1875 224.050781 146.507812 C 221.125 150.832031 221.4375 153.066406 218.144531 152.308594 Z M 240.972656 128.515625 C 233.054688 133.753906 214.753906 133.398438 215.058594 133.445312 C 234.496094 136.421875 240.972656 128.515625 240.972656 128.515625 Z M 227.078125 120.617188 C 220.804688 124.699219 211.238281 124.132812 211.238281 124.132812 C 218.851562 126.699219 227.078125 120.617188 227.078125 120.617188 Z M 183.804688 323.378906 C 176.5625 323.222656 174.277344 321.304688 174.277344 321.304688 C 170.699219 322.792969 164.03125 323.425781 163.320312 323.816406 C 162.554688 324.234375 162.082031 327.375 166.082031 328.417969 C 170.082031 329.464844 183.566406 328.894531 185.304688 329.371094 C 187.046875 329.84375 196.90625 331.742188 200.21875 330.699219 C 200.21875 330.699219 200.789062 324.660156 199.347656 321.257812 C 197.074219 321.140625 191.050781 323.53125 183.804688 323.378906 Z M 279.09375 160.574219 C 276.902344 158.425781 273.652344 157.78125 270.8125 158.945312 C 269.808594 159.355469 268.734375 159.8125 267.601562 160.300781 C 266.621094 166.503906 263.476562 172.773438 259.777344 178.9375 L 281.917969 178.9375 C 283.316406 178.9375 284.515625 177.90625 284.710938 176.519531 C 284.777344 176.039062 284.832031 175.59375 284.847656 175.292969 C 285.125 169.839844 283.066406 164.46875 279.09375 160.574219 Z M 129.886719 202.488281 C 129.886719 201.210938 128.84375 200.171875 127.5625 200.171875 L 119.238281 200.171875 C 117.953125 200.171875 116.914062 201.210938 116.914062 202.488281 C 116.914062 203.769531 117.953125 204.808594 119.238281 204.808594 L 127.5625 204.808594 C 128.84375 204.808594 129.886719 203.769531 129.886719 202.488281 Z M 232.542969 260.097656 L 227.703125 259.554688 C 226.929688 262.578125 225.914062 265.777344 224.75 269.035156 L 232.003906 270.039062 C 233.796875 270.289062 235.488281 268.988281 235.578125 267.183594 C 235.804688 262.628906 232.542969 260.097656 232.542969 260.097656 Z M 200.925781 263.699219 C 201.402344 263.492188 201.925781 263.269531 202.484375 263.039062 C 202.257812 263.984375 202.027344 264.925781 201.800781 265.855469 L 201.214844 265.773438 C 200.125 265.625 199.917969 264.136719 200.925781 263.699219 " fill-opacity="1" fill-rule="nonzero"/><g clip-path="url(#1a953a9e05)"><path fill="#3e3b39" d="M 194.796875 335.558594 L 168.015625 333.339844 C 166.996094 333.269531 166.226562 332.386719 166.292969 331.367188 L 166.359375 330.433594 C 166.425781 329.414062 167.308594 328.644531 168.328125 328.710938 L 195.113281 330.933594 C 196.132812 331 196.90625 331.882812 196.835938 332.902344 L 196.773438 333.835938 C 196.703125 334.855469 195.820312 335.628906 194.796875 335.558594 Z M 162.949219 34.160156 C 162.949219 34.160156 163.011719 34.523438 163.542969 34.6875 C 164.070312 34.855469 168.0625 34.722656 168.6875 35.148438 C 168.6875 35.148438 166.90625 33.402344 162.949219 34.160156 Z M 169.703125 37.523438 C 167.480469 35.84375 163.320312 36.820312 163.320312 36.820312 C 163.601562 37.378906 164.261719 37.382812 164.535156 37.355469 C 164.558594 37.472656 164.585938 37.589844 164.621094 37.707031 C 164.90625 38.65625 165.59375 39.285156 166.15625 39.117188 C 166.714844 38.949219 166.9375 38.046875 166.648438 37.097656 C 166.648438 37.09375 166.644531 37.089844 166.644531 37.085938 C 168.328125 37.078125 169.703125 37.523438 169.703125 37.523438 Z M 228.957031 240.210938 C 228.957031 240.210938 221.414062 239.863281 218.960938 238.375 C 218.960938 238.375 223.167969 241 228.957031 240.210938 Z M 217.253906 246.015625 C 219.28125 248.195312 227.699219 247.496094 227.699219 247.496094 M 206.144531 307.238281 C 206.144531 307.238281 197.1875 302.472656 194.878906 298.644531 C 194.878906 298.644531 200.171875 306.519531 206.144531 307.238281 Z M 205 311.175781 C 205.234375 311.207031 195.433594 307.882812 193.566406 304.457031 C 193.566406 304.457031 196.484375 310.03125 205 311.175781 Z M 161.960938 29.730469 C 162.082031 28.8125 162.1875 28.128906 162.1875 28.128906 C 162.1875 28.128906 166.449219 34.390625 172.132812 35.339844 C 175.328125 35.871094 176.726562 37.597656 178.179688 38.84375 C 178.34375 38.980469 178.503906 39.113281 178.671875 39.234375 C 179 39.484375 179.34375 39.699219 179.722656 39.859375 C 180.476562 40.183594 181.367188 40.304688 182.546875 40.066406 C 182.546875 40.066406 182.667969 40.050781 182.863281 40.042969 C 182.914062 40.042969 182.96875 40.042969 183.027344 40.042969 C 183.144531 40.042969 183.277344 40.042969 183.421875 40.050781 C 183.582031 40.058594 183.753906 40.074219 183.9375 40.101562 C 184.082031 40.121094 184.230469 40.148438 184.378906 40.183594 C 184.808594 40.28125 185.257812 40.449219 185.65625 40.71875 C 185.703125 40.75 185.746094 40.78125 185.789062 40.8125 C 187.0625 41.773438 187.726562 43.902344 185.390625 48.578125 C 187.273438 52.863281 189.761719 55.535156 190.976562 56.671875 C 191.960938 56.804688 199.359375 57.863281 202.648438 60.109375 C 203.183594 60.476562 204.667969 61.992188 206.820312 64.324219 C 207.085938 64.480469 207.367188 64.636719 207.667969 64.800781 C 211.328125 66.546875 215.148438 66.941406 218.007812 66.90625 C 219.488281 65.808594 220.710938 64.511719 221.710938 63.160156 C 211.816406 64.808594 204.664062 55.226562 204.664062 55.226562 C 210.992188 62.417969 222.332031 61.964844 222.351562 61.960938 C 225.882812 57.730469 225.882812 54.015625 225.882812 54.015625 C 220.230469 56.75 213.605469 53.296875 208.023438 48.902344 C 209.683594 48.839844 211.609375 48.988281 213.703125 49.542969 C 220.375 51.308594 223.589844 47.324219 223.589844 47.324219 C 223.589844 47.324219 216.957031 50.488281 208.882812 45.511719 C 200.8125 40.535156 194.21875 43.480469 194.21875 43.480469 C 194.21875 43.480469 194.214844 43.480469 194.214844 43.480469 C 196.976562 36.570312 199.5625 28.054688 198.195312 22.855469 C 195.59375 12.972656 187.539062 16.15625 187.539062 16.15625 C 181.078125 10.625 172.1875 17.582031 162.949219 19.757812 C 154.867188 21.664062 153.550781 20.238281 153.347656 19.847656 C 153.578125 20.414062 155.136719 23.757812 159.988281 24.082031 C 159.988281 24.082031 157.132812 25.402344 154.109375 23.605469 C 156.351562 30.089844 161.960938 29.730469 161.960938 29.730469 Z M 211.648438 69.667969 C 213.375 69.347656 214.90625 68.777344 216.257812 68.03125 C 212.988281 67.410156 209.886719 66.007812 207.667969 64.800781 C 207.410156 64.679688 207.15625 64.546875 206.898438 64.414062 C 208.246094 65.875 209.847656 67.648438 211.648438 69.667969 Z M 121.921875 164.8125 C 119.414062 164.8125 117.382812 166.839844 117.382812 169.34375 C 117.382812 171.847656 119.414062 173.875 121.921875 173.875 C 124.429688 173.875 126.460938 171.847656 126.460938 169.34375 C 126.460938 166.839844 124.429688 164.8125 121.921875 164.8125 Z M 292.609375 294.960938 C 290.574219 294.757812 288.757812 296.238281 288.546875 298.269531 C 288.339844 300.304688 289.828125 302.117188 291.863281 302.324219 C 293.898438 302.53125 295.714844 301.046875 295.921875 299.015625 C 296.128906 296.980469 294.644531 295.167969 292.609375 294.960938 Z M 82.917969 291.910156 C 80.871094 291.910156 79.210938 293.566406 79.210938 295.613281 C 79.210938 297.652344 80.871094 299.308594 82.917969 299.308594 C 84.960938 299.308594 86.621094 297.652344 86.621094 295.613281 C 86.621094 293.566406 84.960938 291.910156 82.917969 291.910156 Z M 349.605469 298.644531 C 349.605469 330.230469 323.867188 355.929688 292.234375 355.929688 C 260.601562 355.929688 234.867188 330.230469 234.867188 298.644531 C 234.867188 267.054688 260.601562 241.355469 292.234375 241.355469 C 323.867188 241.355469 349.605469 267.054688 349.605469 298.644531 Z M 354.25 298.644531 C 354.25 264.496094 326.429688 236.71875 292.234375 236.71875 C 258.042969 236.71875 230.222656 264.496094 230.222656 298.644531 C 230.222656 332.789062 258.042969 360.566406 292.234375 360.566406 C 326.429688 360.566406 354.25 332.789062 354.25 298.644531 Z M 140.285156 295.613281 C 140.285156 327.199219 114.550781 352.898438 82.917969 352.898438 C 51.28125 352.898438 25.546875 327.199219 25.546875 295.613281 C 25.546875 264.019531 51.28125 238.324219 82.917969 238.324219 C 114.550781 238.324219 140.285156 264.019531 140.285156 295.613281 Z M 144.929688 295.613281 C 144.929688 261.464844 117.113281 233.6875 82.917969 233.6875 C 48.722656 233.6875 20.902344 261.464844 20.902344 295.613281 C 20.902344 329.753906 48.722656 357.535156 82.917969 357.535156 C 117.113281 357.535156 144.929688 329.753906 144.929688 295.613281 Z M 189.632812 309.757812 C 188.769531 308.929688 188.28125 308.378906 188.28125 308.378906 C 188.03125 305.484375 191.304688 297.765625 194.078125 291.222656 C 188.753906 295.230469 185.304688 301.597656 185.304688 308.753906 C 185.304688 311.027344 185.652344 313.214844 186.296875 315.277344 C 187.792969 313.335938 189.632812 309.757812 189.632812 309.757812 Z M 216.5 288.839844 C 215.03125 292.027344 213.613281 295.003906 212.367188 297.613281 C 213.246094 297.199219 214.222656 296.960938 215.257812 296.960938 C 219.003906 296.960938 222.050781 300.003906 222.050781 303.746094 C 222.050781 307.488281 219.003906 310.53125 215.257812 310.53125 C 212.105469 310.53125 209.449219 308.371094 208.691406 305.453125 C 208.085938 306.832031 207.75 307.738281 207.78125 308.054688 C 207.902344 309.324219 207.476562 310.214844 207.03125 310.78125 C 207.121094 310.777344 207.210938 310.765625 207.304688 310.765625 C 211.050781 310.765625 214.097656 313.808594 214.097656 317.550781 C 214.097656 321.292969 211.050781 324.335938 207.304688 324.335938 C 203.878906 324.335938 201.042969 321.789062 200.582031 318.492188 L 199.347656 321.257812 C 200.402344 323.746094 200.378906 327.640625 200.289062 329.550781 C 202.488281 330.292969 204.835938 330.699219 207.28125 330.699219 C 219.398438 330.699219 229.257812 320.855469 229.257812 308.753906 C 229.257812 299.941406 224.023438 292.324219 216.5 288.839844 Z M 174.847656 206.96875 L 199.96875 206.96875 C 198.515625 206.167969 196.996094 205.433594 195.382812 204.808594 C 195.382812 204.808594 205.507812 196.765625 215.265625 192.09375 C 215.78125 180.121094 219.738281 160.242188 220.605469 157.675781 C 216.140625 156.097656 213.886719 154.421875 213.886719 154.421875 C 213.875 154.394531 213.871094 154.367188 213.859375 154.339844 C 213.667969 154.34375 213.566406 154.347656 213.566406 154.347656 C 213.816406 154.484375 178.777344 179.085938 173.574219 185.480469 C 168.375 191.871094 166.574219 195.488281 169.375 200.171875 C 169.921875 201.085938 171.941406 203.5625 174.847656 206.96875 Z M 223.09375 158.472656 C 223.105469 158.472656 223.121094 158.480469 223.136719 158.484375 C 223.121094 158.480469 223.105469 158.472656 223.09375 158.472656 Z M 221.378906 157.941406 C 221.402344 157.949219 221.429688 157.957031 221.453125 157.964844 C 221.429688 157.957031 221.402344 157.949219 221.378906 157.941406 Z M 207.28125 238.324219 C 207.144531 235.222656 209.253906 226.058594 211.339844 216.21875 C 209.886719 214.574219 208.289062 212.984375 206.527344 211.496094 L 178.746094 211.496094 C 186.988281 220.992188 198.800781 234.226562 206.753906 243.253906 C 207.125 241.027344 207.324219 239.292969 207.28125 238.324219 Z M 222.304688 158.238281 C 222.261719 158.226562 222.21875 158.210938 222.175781 158.199219 C 222.21875 158.210938 222.261719 158.226562 222.304688 158.238281 " fill-opacity="1" fill-rule="nonzero"/></g></svg>