<?xml version="1.0" encoding="UTF-8"?>
<svg version="1.1" xmlns="http://www.w3.org/2000/svg" width="512" height="512">
<path d="M0 0 C28.39075567 -0.47024026 56.45576554 4.05316652 83.3359375 13.125 C83.99609863 13.3420459 84.65625977 13.5590918 85.33642578 13.78271484 C118.47705119 24.80699346 148.37627793 43.86842943 173.3359375 68.125 C173.94179688 68.70507812 174.54765625 69.28515625 175.171875 69.8828125 C183.52245745 77.89255485 191.20133597 86.10727321 198.07714844 95.421875 C199.30663146 97.08534931 200.55809962 98.73027552 201.8125 100.375 C240.63063717 152.11199789 254.34270218 218.69129313 245.55859375 282.0859375 C239.22646874 323.38271257 221.81120417 363.73672635 195.3359375 396.125 C194.90120117 396.6627002 194.46646484 397.20040039 194.01855469 397.75439453 C181.94756377 412.59584856 168.47535978 426.62226082 152.99072266 437.91455078 C151.34349619 439.11947093 149.72022609 440.35199182 148.09765625 441.58984375 C120.07787209 462.63479951 87.3472419 475.64152755 53.3359375 483.125 C52.57506836 483.29370605 51.81419922 483.46241211 51.03027344 483.63623047 C-8.17504758 496.3740126 -73.69750629 483.79395497 -124.76171875 451.5859375 C-128.45944612 449.18767467 -132.07688297 446.68502742 -135.6640625 444.125 C-136.68757813 443.39667969 -137.71109375 442.66835938 -138.765625 441.91796875 C-156.85278343 428.6747327 -174.19069927 413.09737731 -187.6640625 395.125 C-188.13730957 394.50641113 -188.61055664 393.88782227 -189.09814453 393.25048828 C-198.07296924 381.47853313 -205.71489906 369.18922628 -212.6640625 356.125 C-213.07108398 355.36703125 -213.47810547 354.6090625 -213.89746094 353.828125 C-225.46681617 331.95011544 -232.59783858 307.451421 -236.6640625 283.125 C-236.78716797 282.39265137 -236.91027344 281.66030273 -237.03710938 280.90576172 C-247.02185712 219.35776786 -231.10996044 153.86915709 -195.1328125 103.15917969 C-187.6710413 92.82482503 -179.49754505 83.30579107 -170.6640625 74.125 C-170.11347168 73.54717773 -169.56288086 72.96935547 -168.99560547 72.37402344 C-161.29929325 64.32837817 -153.33194385 57.0310188 -144.38330078 50.39990234 C-142.71434928 49.1622902 -141.06228697 47.90446181 -139.41015625 46.64453125 C-99.29826231 16.55911787 -49.70733693 1.69577269 0 0 Z M-25.6640625 123.125 C-32.38545414 132.22301631 -30.76926596 144.25901957 -29.81542969 154.88916016 C-29.71310532 156.11501328 -29.61078094 157.34086639 -29.50535583 158.60386658 C-29.2252052 161.93293981 -28.93647596 165.26103188 -28.64303112 168.58894396 C-28.39817281 171.37932194 -28.15949121 174.17021455 -27.92079949 176.96112573 C-27.35737505 183.54842007 -26.78423907 190.13481801 -26.20458984 196.72070312 C-25.60872686 203.4924209 -25.02791332 210.26530788 -24.45470881 217.03897822 C-23.96001611 222.87949423 -23.45668542 228.719221 -22.94636083 234.55839193 C-22.64254388 238.03513722 -22.34173747 241.51207015 -22.04897308 244.98976517 C-21.7220088 248.86753063 -21.37696922 252.74357545 -21.03027344 256.61962891 C-20.88980843 258.32648613 -20.88980843 258.32648613 -20.74650574 260.06782532 C-19.82438914 270.07672029 -17.85721193 278.75523306 -10.6640625 286.125 C-2.70928674 292.19654286 4.43881462 292.89477622 14.3359375 292.125 C21.09706212 290.33782375 26.70922705 285.33297642 30.36401367 279.47802734 C34.34488163 271.8714482 34.49361425 263.51335363 35.1484375 255.125 C35.3003002 253.32572273 35.4536864 251.52657357 35.60839844 249.72753906 C35.97189791 245.47585786 36.32581852 241.22347857 36.67626953 236.97070312 C37.38268585 228.47817253 38.14326495 219.99064723 38.90282249 211.50273132 C39.39035729 206.04492693 39.87303861 200.58669169 40.355546 195.12844086 C40.75931092 190.56102984 41.1643908 185.99374658 41.57290649 181.42675781 C41.96422904 177.04617675 42.34858864 172.66503154 42.72824287 168.28342438 C42.87030067 166.65614129 43.01457533 165.02904983 43.16132927 163.40218353 C45.69494492 141.20259401 45.69494492 141.20259401 38.2109375 120.875 C29.24915793 112.30286302 19.46843627 111.92323589 7.7109375 111.875 C6.47730469 111.854375 5.24367188 111.83375 3.97265625 111.8125 C-8.48052644 111.75956405 -17.20812525 113.5646138 -25.6640625 123.125 Z M-15.6640625 330.125 C-21.10959274 337.54951562 -21.80076949 345.1260697 -20.6640625 354.125 C-18.34371121 362.60415604 -13.23376075 368.70934269 -5.6640625 373.125 C0.85675407 376.47352743 8.13440539 376.75325583 15.140625 374.91015625 C23.3504022 371.97391921 28.83701133 366.4334934 33.1484375 359 C36.18606735 351.64573827 36.31152107 343.95683595 33.5703125 336.49609375 C29.65107305 328.96768126 23.39840022 322.8836793 15.3359375 320.125 C3.81437719 316.75283601 -8.02067936 321.15007727 -15.6640625 330.125 Z " fill="#56ADFF" transform="translate(251.6640625,11.875)"/>
</svg>
