<?xml version="1.0" encoding="UTF-8" standalone="no"?>
<svg
   width="25"
   height="25"
   viewBox="0 0 25 25"
   fill="none"
   version="1.1"
   id="svg2"
   sodipodi:docname="ace61f02-1613-43fc-99dc-e9a0646dcd81.svg"
   xmlns:inkscape="http://www.inkscape.org/namespaces/inkscape"
   xmlns:sodipodi="http://sodipodi.sourceforge.net/DTD/sodipodi-0.dtd"
   xmlns="http://www.w3.org/2000/svg"
   xmlns:svg="http://www.w3.org/2000/svg">
  <defs
     id="defs2" />
  <sodipodi:namedview
     id="namedview2"
     pagecolor="#ffffff"
     bordercolor="#000000"
     borderopacity="0.25"
     inkscape:showpageshadow="2"
     inkscape:pageopacity="0.0"
     inkscape:pagecheckerboard="0"
     inkscape:deskcolor="#d1d1d1" />
  <path
     d="M21.25 3.75H20V1.25C20 0.559644 19.4404 0 18.75 0C18.0596 0 17.5 0.559644 17.5 1.25V3.75H7.5V1.25C7.5 0.559644 6.94036 0 6.25 0C5.55964 0 5 0.559644 5 1.25V3.75H3.75C1.67893 3.75 0 5.42893 0 7.5V8.75H25V7.5C25 5.42893 23.3211 3.75 21.25 3.75Z"
     fill="#74C0FC"
     id="path1" />
  <path
     d="M0 21.25C0 23.321 1.67893 25 3.75 25H21.25C23.3211 25 25 23.321 25 21.25V11.25H0V21.25Z"
     fill="#74C0FC"
     id="path2" />
</svg>
