<?xml version="1.0" encoding="UTF-8"?>
<svg version="1.1" xmlns="http://www.w3.org/2000/svg" width="500" height="500">
<path d="M0 0 C0.75590376 -0.00467997 1.51180753 -0.00935994 2.29061747 -0.01418173 C4.83108822 -0.02617633 7.37102398 -0.01665732 9.91149902 -0.00723267 C11.72971411 -0.01129639 13.54792673 -0.01663715 15.36613464 -0.02316284 C20.31027695 -0.03686593 25.25423193 -0.03152546 30.19837761 -0.02202559 C35.36598094 -0.01444447 40.53356794 -0.02147028 45.70117188 -0.02618408 C54.38019702 -0.03164616 63.05914565 -0.02443817 71.73815918 -0.01016235 C81.78055468 0.00616501 91.82276748 0.00087682 101.86515856 -0.01564157 C110.47837405 -0.02924357 119.09153445 -0.0311824 127.70475721 -0.02332556 C132.85299138 -0.01864196 138.0011396 -0.01804302 143.14936829 -0.02793503 C147.98879893 -0.03658372 152.8279934 -0.03062127 157.66739845 -0.01325226 C159.44640014 -0.00927617 161.22542162 -0.01044054 163.00441551 -0.01704025 C165.42728677 -0.02520176 167.84939458 -0.01500024 170.2722168 0 C170.98125735 -0.00669217 171.6902979 -0.01338433 172.42082453 -0.02027929 C175.25872209 0.01395326 177.17449907 0.05590542 179.53385162 1.71726036 C182.04177422 5.50259175 181.76419233 9.10105072 181.76982117 13.50360107 C181.77208672 14.23359239 181.77435228 14.96358371 181.77668649 15.71569598 C181.78303033 18.16842062 181.78219688 20.62109007 181.78137207 23.07382202 C181.78436333 24.82967704 181.78776578 26.5855314 181.79154968 28.34138489 C181.80039742 33.11618758 181.80272813 37.89097236 181.80336547 42.66578245 C181.8043141 46.6494448 181.80799189 50.63310297 181.81153756 54.61676371 C181.81968511 64.01439858 181.82212153 73.41202387 181.82141113 82.80966187 C181.82081029 92.50888394 181.8313627 102.2080504 181.8471548 111.90725839 C181.86022373 120.23004842 181.8655953 128.55282027 181.86495572 136.87562048 C181.86470054 141.84840894 181.86756292 146.82114799 181.87813377 151.79392624 C181.88780384 156.47079337 181.88790143 161.14756377 181.88061714 165.82443428 C181.87956993 167.54132414 181.88194225 169.25821999 181.8879776 170.97509956 C181.89568131 173.3182918 181.89106356 175.66114862 181.88334656 178.0043335 C181.88389132 179.31583563 181.88443609 180.62733776 181.88499737 181.97858238 C181.64504364 185.25880419 181.16505131 187.48516305 179.6361084 190.38095093 C176.66794068 191.86503479 173.6470447 191.5253538 170.39247131 191.52139282 C169.63742197 191.52436394 168.88237264 191.52733507 168.10444301 191.53039622 C165.561032 191.53910448 163.01766793 191.54059325 160.47424316 191.54208374 C158.65617776 191.54671035 156.83811334 191.55173479 155.02005005 191.55712891 C150.07177812 191.57026855 145.12351978 191.5767007 140.17523313 191.58113956 C137.08665295 191.58406727 133.99807651 191.58817145 130.90949821 191.59264374 C121.2543348 191.60632168 111.59917989 191.61598735 101.94400746 191.61984563 C90.7827541 191.62432978 79.62162301 191.64189298 68.46040684 191.67084622 C59.84297862 191.69242809 51.22558489 191.70254801 42.60812992 191.70388675 C37.45651013 191.70493713 32.30500521 191.71089435 27.15341377 191.72870636 C22.30991837 191.74512713 17.46662495 191.74737188 12.62311172 191.73856735 C10.84248885 191.7377938 9.06185537 191.74218134 7.28125954 191.7520256 C4.85617212 191.76464996 2.43181045 191.75892088 0.00672913 191.7484436 C-0.70299354 191.75650001 -1.41271622 191.76455641 -2.14394563 191.77285695 C-4.83543132 191.7455351 -6.91683222 191.6262462 -9.30074596 190.31822586 C-10.94372396 187.32437443 -10.77624728 184.34441884 -10.74484253 181.01705933 C-10.7495225 180.26115556 -10.75420247 179.5052518 -10.75902426 178.72644186 C-10.77101886 176.1859711 -10.76149985 173.64603535 -10.7520752 171.1055603 C-10.75613892 169.28734522 -10.76147968 167.4691326 -10.76800537 165.65092468 C-10.78170846 160.70678238 -10.77636799 155.76282739 -10.76686811 150.81868172 C-10.759287 145.65107839 -10.76631281 140.48349139 -10.77102661 135.31588745 C-10.77648869 126.63686231 -10.7692807 117.95791368 -10.75500488 109.27890015 C-10.73867752 99.23650464 -10.74396571 89.19429184 -10.7604841 79.15190077 C-10.7740861 70.53868528 -10.77602493 61.92552487 -10.76816809 53.31230211 C-10.76348449 48.16406795 -10.76288555 43.01591973 -10.77277756 37.86769104 C-10.78142625 33.0282604 -10.7754638 28.18906593 -10.75809479 23.34966087 C-10.7541187 21.57065918 -10.75528307 19.79163771 -10.76188278 18.01264381 C-10.77004429 15.58977255 -10.75984277 13.16766475 -10.74484253 10.74484253 C-10.75153469 10.03580198 -10.75822686 9.32676143 -10.76512182 8.5962348 C-10.73268224 5.90697555 -10.60817793 3.82572277 -9.30032539 1.44451714 C-6.3071542 -0.19945115 -3.32713527 -0.03140263 0 0 Z " fill="#DF4C5A" transform="translate(60.3638916015625,49.619049072265625)"/>
<path d="M0 0 C0.75590376 -0.00467997 1.51180753 -0.00935994 2.29061747 -0.01418173 C4.83108822 -0.02617633 7.37102398 -0.01665732 9.91149902 -0.00723267 C11.72971411 -0.01129639 13.54792673 -0.01663715 15.36613464 -0.02316284 C20.31027695 -0.03686593 25.25423193 -0.03152546 30.19837761 -0.02202559 C35.36598094 -0.01444447 40.53356794 -0.02147028 45.70117188 -0.02618408 C54.38019702 -0.03164616 63.05914565 -0.02443817 71.73815918 -0.01016235 C81.78055468 0.00616501 91.82276748 0.00087682 101.86515856 -0.01564157 C110.47837405 -0.02924357 119.09153445 -0.0311824 127.70475721 -0.02332556 C132.85299138 -0.01864196 138.0011396 -0.01804302 143.14936829 -0.02793503 C147.98879893 -0.03658372 152.8279934 -0.03062127 157.66739845 -0.01325226 C159.44640014 -0.00927617 161.22542162 -0.01044054 163.00441551 -0.01704025 C165.42728677 -0.02520176 167.84939458 -0.01500024 170.2722168 0 C170.98125735 -0.00669217 171.6902979 -0.01338433 172.42082453 -0.02027929 C175.21963793 0.0134818 177.17400149 0.07077401 179.53385162 1.65476036 C182.12753088 5.71659493 181.7678937 9.90811631 181.78327942 14.62385559 C181.78695611 15.35470133 181.7906328 16.08554708 181.7944209 16.83853966 C181.80543652 19.28814938 181.8092979 21.73771665 181.81311035 24.18734741 C181.8193764 25.94335057 181.82602333 27.6993524 181.83302307 29.45535278 C181.85404175 35.22090739 181.86442055 40.98646221 181.87438965 46.75204468 C181.87843744 48.7368121 181.88255437 50.72157938 181.88673973 52.70634651 C181.90578328 62.02726086 181.92001842 71.34816731 181.9283517 80.66909736 C181.93813399 91.43302637 181.96448285 102.19675029 182.00485259 112.96060699 C182.03498273 121.27917007 182.04981746 129.59767422 182.05313271 137.91629082 C182.05548593 142.88578364 182.0644823 147.85505714 182.08959389 152.8244915 C182.11282662 157.49734416 182.11712727 162.16983228 182.1068325 166.84272766 C182.10633593 168.55801669 182.11269212 170.27332339 182.12638855 171.98855782 C182.14403896 174.32983209 182.13703639 176.66978821 182.12385559 179.01106262 C182.12624394 180.32126594 182.1286323 181.63146925 182.13109303 182.98137569 C181.53629324 187.06648565 180.77920008 188.70088966 177.6361084 191.38095093 C174.93305738 191.8807024 172.85314243 192.05029594 170.15196228 192.00241089 C169.39520409 192.00879971 168.6384459 192.01518853 167.85875565 192.02177095 C165.32103108 192.03704114 162.78486276 192.01654786 160.24719238 191.9961853 C158.42882774 191.99968588 156.61046615 192.00534375 154.79211426 192.01300049 C149.85202176 192.02726623 144.91248467 192.01017007 139.97244525 191.98671532 C134.80752421 191.9666349 129.64262686 191.97248436 124.47767639 191.974823 C115.80456357 191.9747694 107.13166843 191.954996 98.45861816 191.92294312 C88.42357329 191.88603761 78.38881352 191.87726888 68.35370964 191.88424063 C58.70865293 191.89053982 49.06369424 191.87980291 39.4186573 191.86027527 C35.30985177 191.85208892 31.20109626 191.84939398 27.09228325 191.85096741 C22.25691586 191.8518446 17.42182059 191.83767498 12.58652496 191.81174088 C10.8091444 191.80456233 9.03173492 191.80250353 7.25434303 191.80585861 C4.83368779 191.80955721 2.41383382 191.79488333 -0.00672913 191.77536011 C-0.71508756 191.78068803 -1.42344599 191.78601596 -2.15326983 191.79150534 C-4.84029452 191.75394689 -6.92140374 191.62422785 -9.29990482 190.31654358 C-10.9448636 187.32405328 -10.77624304 184.34397019 -10.74484253 181.01705933 C-10.7495225 180.26115556 -10.75420247 179.5052518 -10.75902426 178.72644186 C-10.77101886 176.1859711 -10.76149985 173.64603535 -10.7520752 171.1055603 C-10.75613892 169.28734522 -10.76147968 167.4691326 -10.76800537 165.65092468 C-10.78170846 160.70678238 -10.77636799 155.76282739 -10.76686811 150.81868172 C-10.759287 145.65107839 -10.76631281 140.48349139 -10.77102661 135.31588745 C-10.77648869 126.63686231 -10.7692807 117.95791368 -10.75500488 109.27890015 C-10.73867752 99.23650464 -10.74396571 89.19429184 -10.7604841 79.15190077 C-10.7740861 70.53868528 -10.77602493 61.92552487 -10.76816809 53.31230211 C-10.76348449 48.16406795 -10.76288555 43.01591973 -10.77277756 37.86769104 C-10.78142625 33.0282604 -10.7754638 28.18906593 -10.75809479 23.34966087 C-10.7541187 21.57065918 -10.75528307 19.79163771 -10.76188278 18.01264381 C-10.77004429 15.58977255 -10.75984277 13.16766475 -10.74484253 10.74484253 C-10.75153469 10.03580198 -10.75822686 9.32676143 -10.76512182 8.5962348 C-10.73268224 5.90697555 -10.60817793 3.82572277 -9.30032539 1.44451714 C-6.3071542 -0.19945115 -3.32713527 -0.03140263 0 0 Z " fill="#83D055" transform="translate(60.3638916015625,258.6190490722656)"/>
<path d="M0 0 C0.76069288 -0.00467997 1.52138576 -0.00935994 2.30512995 -0.01418173 C4.86175309 -0.02617662 7.41784464 -0.01665723 9.97447205 -0.00723267 C11.80416172 -0.01129635 13.63384894 -0.01663708 15.46353149 -0.02316284 C20.43859702 -0.03686553 25.41347639 -0.03152588 30.38854527 -0.02202559 C35.58731298 -0.01444541 40.78606445 -0.02146991 45.98483276 -0.02618408 C54.71513235 -0.03164595 63.44535587 -0.02443821 72.17564392 -0.01016235 C82.28054301 0.00617008 92.38526058 0.00087306 102.49015528 -0.01564157 C111.15515929 -0.02923808 119.82010853 -0.03118525 128.48511976 -0.02332556 C133.66517994 -0.01863959 138.84515468 -0.01804959 144.02520943 -0.02793503 C148.89336368 -0.03657595 153.76128294 -0.03063565 158.6294117 -0.01325226 C160.42012135 -0.00927221 162.21085065 -0.01044724 164.00155258 -0.01704025 C166.43791045 -0.02518612 168.87350575 -0.01501958 171.30981445 0 C172.02565879 -0.00669217 172.74150313 -0.01338433 173.47903973 -0.02027929 C175.44886875 0.00342751 175.44886875 0.00342751 178.59141541 0.38095093 C180.99507757 3.98644418 180.87430376 6.58140189 180.85211182 10.74484253 C180.85593736 11.50074629 180.85976291 12.25665006 180.86370438 13.03546 C180.87404751 15.57582399 180.8700398 18.11596251 180.86607361 20.65634155 C180.87041932 22.47455556 180.875602 24.29276774 180.88156128 26.11097717 C180.89497667 31.05507871 180.8955272 35.99910394 180.89299798 40.94322014 C180.89193014 45.06625376 180.89680676 49.18927182 180.9016034 53.31230211 C180.91270706 63.03588043 180.91313096 72.75942012 180.90708923 82.48300171 C180.90104555 92.52538945 180.91336852 102.56763723 180.9346593 112.61000109 C180.95225094 121.22320975 180.95828058 129.83637376 180.95502156 138.44959974 C180.95320489 143.59784213 180.95588306 148.74598464 180.9697361 153.89421082 C180.98227049 158.73362837 180.98041216 163.57282697 180.96732521 168.41224098 C180.96495039 170.19124741 180.96772631 171.97026903 180.97594833 173.74925804 C180.98634125 176.17211596 180.97837601 178.59422895 180.96563721 181.01705933 C180.97301149 181.72609988 180.98038578 182.43514043 180.98798352 183.16566706 C180.95809712 185.85528735 180.83593701 187.93557459 179.52826977 190.31738472 C176.53481069 191.96115411 173.55484094 191.7933062 170.2275238 191.76190186 C169.47162004 191.76658183 168.71571628 191.7712618 167.93690634 191.77608359 C165.39643558 191.78807818 162.85649983 191.77855917 160.31602478 191.76913452 C158.49780969 191.77319825 156.67959708 191.778539 154.86138916 191.7850647 C149.91724685 191.79876779 144.97329187 191.79342732 140.02914619 191.78392744 C134.86154287 191.77634633 129.69395587 191.78337214 124.52635193 191.78808594 C115.84732678 191.79354801 107.16837816 191.78634003 98.48936462 191.77206421 C88.44696912 191.75573684 78.40475632 191.76102503 68.36236525 191.77754343 C59.74914975 191.79114543 51.13598935 191.79308425 42.52276659 191.78522742 C37.37453242 191.78054382 32.22638421 191.77994487 27.07815552 191.78983688 C22.23872488 191.79848558 17.39953041 191.79252312 12.56012535 191.77515411 C10.78112366 191.77117803 9.00210218 191.7723424 7.22310829 191.77894211 C4.80023703 191.78710361 2.37812922 191.7769021 -0.04469299 191.76190186 C-0.75373354 191.76859402 -1.4627741 191.77528619 -2.19330072 191.78218114 C-4.88255998 191.74974157 -6.96381275 191.62523726 -9.34501839 190.31738472 C-10.98898667 187.32421352 -10.82093815 184.34419459 -10.78953552 181.01705933 C-10.79421549 180.26115556 -10.79889547 179.5052518 -10.80371726 178.72644186 C-10.81571185 176.1859711 -10.80619284 173.64603535 -10.79676819 171.1055603 C-10.80083192 169.28734522 -10.80617267 167.4691326 -10.81269836 165.65092468 C-10.82640146 160.70678238 -10.82106098 155.76282739 -10.81156111 150.81868172 C-10.80397999 145.65107839 -10.8110058 140.48349139 -10.8157196 135.31588745 C-10.82118168 126.63686231 -10.8139737 117.95791368 -10.79969788 109.27890015 C-10.78337051 99.23650464 -10.7886587 89.19429184 -10.80517709 79.15190077 C-10.81877909 70.53868528 -10.82071792 61.92552487 -10.81286108 53.31230211 C-10.80817749 48.16406795 -10.80757854 43.01591973 -10.81747055 37.86769104 C-10.82611924 33.0282604 -10.82015679 28.18906593 -10.80278778 23.34966087 C-10.7988117 21.57065918 -10.79997607 19.79163771 -10.80657578 18.01264381 C-10.81473728 15.58977255 -10.80453577 13.16766475 -10.78953552 10.74484253 C-10.79622769 10.03580198 -10.80291985 9.32676143 -10.80981481 8.5962348 C-10.77739343 5.90848394 -10.65221839 3.82570278 -9.3478117 1.44451714 C-6.34143886 -0.20432356 -3.34089241 -0.03133041 0 0 Z " fill="#363534" transform="translate(269.40858459472656,49.619049072265625)"/>
<path d="M0 0 C0.75590376 -0.00467997 1.51180753 -0.00935994 2.29061747 -0.01418173 C4.83108822 -0.02617633 7.37102398 -0.01665732 9.91149902 -0.00723267 C11.72971411 -0.01129639 13.54792673 -0.01663715 15.36613464 -0.02316284 C20.31027695 -0.03686593 25.25423193 -0.03152546 30.19837761 -0.02202559 C35.36598094 -0.01444447 40.53356794 -0.02147028 45.70117188 -0.02618408 C54.38019702 -0.03164616 63.05914565 -0.02443817 71.73815918 -0.01016235 C81.78055468 0.00616501 91.82276748 0.00087682 101.86515856 -0.01564157 C110.47837405 -0.02924357 119.09153445 -0.0311824 127.70475721 -0.02332556 C132.85299138 -0.01864196 138.0011396 -0.01804302 143.14936829 -0.02793503 C147.98879893 -0.03658372 152.8279934 -0.03062127 157.66739845 -0.01325226 C159.44640014 -0.00927617 161.22542162 -0.01044054 163.00441551 -0.01704025 C165.42728677 -0.02520176 167.84939458 -0.01500024 170.2722168 0 C170.98125735 -0.00669217 171.6902979 -0.01338433 172.42082453 -0.02027929 C175.11008378 0.01216029 177.19133656 0.1366646 179.57254219 1.44451714 C181.21651048 4.43768833 181.04846196 7.41770726 181.01705933 10.74484253 C181.0217393 11.50074629 181.02641927 12.25665006 181.03124106 13.03546 C181.04323565 15.57593075 181.03371664 18.11586651 181.02429199 20.65634155 C181.02835572 22.47455664 181.03369648 24.29276926 181.04022217 26.11097717 C181.05392526 31.05511948 181.04858479 35.99907446 181.03908491 40.94322014 C181.0315038 46.11082347 181.03852961 51.27841047 181.04324341 56.4460144 C181.04870548 65.12503955 181.0414975 73.80398817 181.02722168 82.48300171 C181.01089432 92.52539721 181.0161825 102.56761001 181.0327009 112.61000109 C181.0463029 121.22321658 181.04824173 129.83637698 181.04038489 138.44959974 C181.03570129 143.59783391 181.03510234 148.74598213 181.04499435 153.89421082 C181.05364305 158.73364146 181.04768059 163.57283593 181.03031158 168.41224098 C181.0263355 170.19124267 181.02749987 171.97026415 181.03409958 173.74925804 C181.04226108 176.1721293 181.03205957 178.59423711 181.01705933 181.01705933 C181.02375149 181.72609988 181.03044366 182.43514043 181.03733861 183.16566706 C181.00489904 185.85492631 180.88039473 187.93617909 179.57254219 190.31738472 C176.57937099 191.96135301 173.59935206 191.79330449 170.2722168 191.76190186 C169.51631303 191.76658183 168.76040927 191.7712618 167.98159933 191.77608359 C165.44112857 191.78807818 162.90119282 191.77855917 160.36071777 191.76913452 C158.54250269 191.77319825 156.72429007 191.778539 154.90608215 191.7850647 C149.96193985 191.79876779 145.01798486 191.79342732 140.07383919 191.78392744 C134.90623586 191.77634633 129.73864886 191.78337214 124.57104492 191.78808594 C115.89201978 191.79354801 107.21307115 191.78634003 98.53405762 191.77206421 C88.49166211 191.75573684 78.44944931 191.76102503 68.40705824 191.77754343 C59.79384275 191.79114543 51.18068234 191.79308425 42.56745958 191.78522742 C37.41922542 191.78054382 32.2710772 191.77994487 27.12284851 191.78983688 C22.28341787 191.79848558 17.4442234 191.79252312 12.60481834 191.77515411 C10.82581665 191.77117803 9.04679518 191.7723424 7.26780128 191.77894211 C4.84493002 191.78710361 2.42282222 191.7769021 0 191.76190186 C-0.70904055 191.76859402 -1.4180811 191.77528619 -2.14860773 191.78218114 C-4.83786698 191.74974157 -6.91911976 191.62523726 -9.30032539 190.31738472 C-10.94429368 187.32421352 -10.77624516 184.34419459 -10.74484253 181.01705933 C-10.7495225 180.26115556 -10.75420247 179.5052518 -10.75902426 178.72644186 C-10.77101886 176.1859711 -10.76149985 173.64603535 -10.7520752 171.1055603 C-10.75613892 169.28734522 -10.76147968 167.4691326 -10.76800537 165.65092468 C-10.78170846 160.70678238 -10.77636799 155.76282739 -10.76686811 150.81868172 C-10.759287 145.65107839 -10.76631281 140.48349139 -10.77102661 135.31588745 C-10.77648869 126.63686231 -10.7692807 117.95791368 -10.75500488 109.27890015 C-10.73867752 99.23650464 -10.74396571 89.19429184 -10.7604841 79.15190077 C-10.7740861 70.53868528 -10.77602493 61.92552487 -10.76816809 53.31230211 C-10.76348449 48.16406795 -10.76288555 43.01591973 -10.77277756 37.86769104 C-10.78142625 33.0282604 -10.7754638 28.18906593 -10.75809479 23.34966087 C-10.7541187 21.57065918 -10.75528307 19.79163771 -10.76188278 18.01264381 C-10.77004429 15.58977255 -10.75984277 13.16766475 -10.74484253 10.74484253 C-10.75153469 10.03580198 -10.75822686 9.32676143 -10.76512182 8.5962348 C-10.73268224 5.90697555 -10.60817793 3.82572277 -9.30032539 1.44451714 C-6.3071542 -0.19945115 -3.32713527 -0.03140263 0 0 Z " fill="#23A4F9" transform="translate(269.3638916015625,258.6190490722656)"/>
<path d="M0 0 C54.78 0 109.56 0 166 0 C166 55.11 166 110.22 166 167 C160.72 167 155.44 167 150 167 C149.99191315 165.32567902 149.98382629 163.65135803 149.97549438 161.92630005 C149.89815463 146.18057493 149.81056564 130.43494214 149.71247292 114.68933296 C149.66230207 106.59352645 149.61585979 98.49773029 149.578125 90.40185547 C149.54523478 83.34737905 149.50542022 76.29298196 149.45720994 69.23859298 C149.43191524 65.50163658 149.41014289 61.764733 149.39665604 58.02771378 C149.3814888 53.86097012 149.35086596 49.69448025 149.31884766 45.52783203 C149.31668747 44.28202362 149.31452728 43.03621521 149.31230164 41.75265503 C149.30113815 40.62240906 149.28997467 39.49216309 149.2784729 38.32766724 C149.27294214 37.34134874 149.26741138 36.35503025 149.26171303 35.33882332 C149.22493055 32.80887266 149.22493055 32.80887266 147 31 C142.59998663 30.60051529 138.18541838 30.67098439 133.76928711 30.68432617 C131.57420079 30.68748317 129.38046615 30.66404239 127.18554688 30.63867188 C125.79166837 30.63639857 124.39778623 30.63569553 123.00390625 30.63671875 C121.73361572 30.63373779 120.4633252 30.63075684 119.15454102 30.62768555 C116.09268049 30.73392304 116.09268049 30.73392304 114.32776165 32.18514729 C112.50881451 34.67137751 112.61572865 36.34238024 112.60127258 39.40995789 C112.58246536 41.09476761 112.58246536 41.09476761 112.5632782 42.81361389 C112.56543083 44.66290749 112.56543083 44.66290749 112.56762695 46.54956055 C112.5574353 47.84722351 112.54724365 49.14488647 112.53674316 50.48187256 C112.50912364 54.04152089 112.49988202 57.60100948 112.49388909 61.1607511 C112.48451822 64.88041012 112.45831594 68.59994921 112.43388367 72.3195343 C112.39017941 79.36364656 112.36165664 86.40773559 112.33856028 93.45194227 C112.31152959 101.47127512 112.26761682 109.49048756 112.22227156 117.50973451 C112.12936908 134.00643095 112.05831294 150.50314463 112 167 C108.37 167 104.74 167 101 167 C100.99191315 165.81427399 100.98382629 164.62854797 100.97549438 163.40689087 C100.8981333 152.25257857 100.81041975 141.09838976 100.71247292 129.94423866 C100.66244839 124.20926983 100.61611904 118.47431997 100.578125 112.73925781 C100.54134981 107.20842369 100.49501136 101.67774603 100.44193649 96.14704514 C100.42335112 94.03308217 100.40825862 91.91908561 100.39665604 89.80507278 C100.37986426 86.85246886 100.35084682 83.90022655 100.31884766 80.94775391 C100.31668747 80.0666243 100.31452728 79.18549469 100.31230164 78.27766418 C100.46003102 73.65923365 100.46003102 73.65923365 98 70 C94.82576476 69.68748628 94.82576476 69.68748628 91.09375 69.734375 C90.41324585 69.73246155 89.7327417 69.7305481 89.03161621 69.72857666 C87.59252554 69.72721537 86.15342256 69.73090795 84.71435547 69.73925781 C82.50850913 69.74995872 80.30347719 69.73936128 78.09765625 69.7265625 C76.70051903 69.72788411 75.30338232 69.73044652 73.90625 69.734375 C72.63072266 69.73663086 71.35519531 69.73888672 70.04101562 69.74121094 C66.8899757 69.68028934 66.8899757 69.68028934 65 72 C64.78201123 75.01149391 64.68854171 77.93366611 64.68115234 80.94775391 C64.67110672 81.87463516 64.6610611 82.80151642 64.65071106 83.75648499 C64.61974213 86.82983766 64.60280593 89.9031027 64.5859375 92.9765625 C64.56723687 95.10363527 64.54766431 97.23070054 64.5272522 99.35775757 C64.4758082 104.96370023 64.43624826 110.56966697 64.39910889 116.17572021 C64.35914597 121.89324969 64.30801855 127.61067792 64.2578125 133.328125 C64.16090803 144.55201234 64.07654988 155.77595668 64 167 C60.37 167 56.74 167 53 167 C52.99413376 166.19233688 52.98826752 165.38467377 52.98222351 164.55253601 C52.92434532 156.94501422 52.85229728 149.33782177 52.76428509 141.73059368 C52.71953685 137.81952152 52.68029089 133.90855459 52.65356445 129.99731445 C52.62757539 126.22347912 52.5872051 122.45004781 52.53681374 118.67646217 C52.52011506 117.23600091 52.50861947 115.79546972 52.50238609 114.35492516 C52.49277852 112.33896226 52.46303898 110.32312559 52.43237305 108.30737305 C52.41571846 106.58528877 52.41571846 106.58528877 52.39872742 104.82841492 C52.2225222 102.00926733 52.2225222 102.00926733 50.6701355 100.13005066 C47.91858987 98.26829396 45.26438446 98.61026854 41.99609375 98.6015625 C41.31700455 98.59869232 40.63791534 98.59582214 39.93824768 98.59286499 C38.50512862 98.59082628 37.07198162 98.59634277 35.63891602 98.60888672 C33.44159046 98.62497006 31.24609714 98.60902099 29.04882812 98.58984375 C27.65624593 98.59182573 26.26366488 98.59566848 24.87109375 98.6015625 C22.96734985 98.60663818 22.96734985 98.60663818 21.02514648 98.61181641 C20.02684814 98.73991699 19.0285498 98.86801758 18 99 C15.63753495 102.54369758 15.72995155 104.10250808 15.68115234 108.30737305 C15.66128265 109.60849533 15.64141296 110.90961761 15.62094116 112.25016785 C15.60906469 113.67068309 15.59740184 115.09120012 15.5859375 116.51171875 C15.56722765 117.96475833 15.54765438 119.41778703 15.5272522 120.87080383 C15.47590536 124.69297877 15.43629347 128.51518895 15.39910889 132.33752441 C15.35908513 136.238777 15.30798539 140.1398827 15.2578125 144.04101562 C15.16102296 151.69391734 15.07765183 159.34687579 15 167 C10.05 167 5.1 167 0 167 C0 111.89 0 56.78 0 0 Z " fill="#FBCF41" transform="translate(272,62)"/>
<path d="M0 0 C0.75590376 -0.00467997 1.51180753 -0.00935994 2.29061747 -0.01418173 C4.83108822 -0.02617633 7.37102398 -0.01665732 9.91149902 -0.00723267 C11.72971411 -0.01129639 13.54792673 -0.01663715 15.36613464 -0.02316284 C20.31027695 -0.03686593 25.25423193 -0.03152546 30.19837761 -0.02202559 C35.36598094 -0.01444447 40.53356794 -0.02147028 45.70117188 -0.02618408 C54.38019702 -0.03164616 63.05914565 -0.02443817 71.73815918 -0.01016235 C81.78055468 0.00616501 91.82276748 0.00087682 101.86515856 -0.01564157 C110.47837405 -0.02924357 119.09153445 -0.0311824 127.70475721 -0.02332556 C132.85299138 -0.01864196 138.0011396 -0.01804302 143.14936829 -0.02793503 C147.98879893 -0.03658372 152.8279934 -0.03062127 157.66739845 -0.01325226 C159.44640014 -0.00927617 161.22542162 -0.01044054 163.00441551 -0.01704025 C165.42728677 -0.02520176 167.84939458 -0.01500024 170.2722168 0 C170.98125735 -0.00669217 171.6902979 -0.01338433 172.42082453 -0.02027929 C175.21963793 0.0134818 177.17400149 0.07077401 179.53385162 1.65476036 C182.12753088 5.71659493 181.7678937 9.90811631 181.78327942 14.62385559 C181.78695611 15.35470133 181.7906328 16.08554708 181.7944209 16.83853966 C181.80543652 19.28814938 181.8092979 21.73771665 181.81311035 24.18734741 C181.8193764 25.94335057 181.82602333 27.6993524 181.83302307 29.45535278 C181.85404175 35.22090739 181.86442055 40.98646221 181.87438965 46.75204468 C181.87843744 48.7368121 181.88255437 50.72157938 181.88673973 52.70634651 C181.90578328 62.02726086 181.92001842 71.34816731 181.9283517 80.66909736 C181.93813399 91.43302637 181.96448285 102.19675029 182.00485259 112.96060699 C182.03498273 121.27917007 182.04981746 129.59767422 182.05313271 137.91629082 C182.05548593 142.88578364 182.0644823 147.85505714 182.08959389 152.8244915 C182.11282662 157.49734416 182.11712727 162.16983228 182.1068325 166.84272766 C182.10633593 168.55801669 182.11269212 170.27332339 182.12638855 171.98855782 C182.14403896 174.32983209 182.13703639 176.66978821 182.12385559 179.01106262 C182.12624394 180.32126594 182.1286323 181.63146925 182.13109303 182.98137569 C181.53629324 187.06648565 180.77920008 188.70088966 177.6361084 191.38095093 C174.93305738 191.8807024 172.85314243 192.05029594 170.15196228 192.00241089 C169.39520409 192.00879971 168.6384459 192.01518853 167.85875565 192.02177095 C165.32103108 192.03704114 162.78486276 192.01654786 160.24719238 191.9961853 C158.42882774 191.99968588 156.61046615 192.00534375 154.79211426 192.01300049 C149.85202176 192.02726623 144.91248467 192.01017007 139.97244525 191.98671532 C134.80752421 191.9666349 129.64262686 191.97248436 124.47767639 191.974823 C115.80456357 191.9747694 107.13166843 191.954996 98.45861816 191.92294312 C88.42357329 191.88603761 78.38881352 191.87726888 68.35370964 191.88424063 C58.70865293 191.89053982 49.06369424 191.87980291 39.4186573 191.86027527 C35.30985177 191.85208892 31.20109626 191.84939398 27.09228325 191.85096741 C22.25691586 191.8518446 17.42182059 191.83767498 12.58652496 191.81174088 C10.8091444 191.80456233 9.03173492 191.80250353 7.25434303 191.80585861 C4.83368779 191.80955721 2.41383382 191.79488333 -0.00672913 191.77536011 C-0.71508756 191.78068803 -1.42344599 191.78601596 -2.15326983 191.79150534 C-4.84029452 191.75394689 -6.92140374 191.62422785 -9.29990482 190.31654358 C-10.9448636 187.32405328 -10.77624304 184.34397019 -10.74484253 181.01705933 C-10.7495225 180.26115556 -10.75420247 179.5052518 -10.75902426 178.72644186 C-10.77101886 176.1859711 -10.76149985 173.64603535 -10.7520752 171.1055603 C-10.75613892 169.28734522 -10.76147968 167.4691326 -10.76800537 165.65092468 C-10.78170846 160.70678238 -10.77636799 155.76282739 -10.76686811 150.81868172 C-10.759287 145.65107839 -10.76631281 140.48349139 -10.77102661 135.31588745 C-10.77648869 126.63686231 -10.7692807 117.95791368 -10.75500488 109.27890015 C-10.73867752 99.23650464 -10.74396571 89.19429184 -10.7604841 79.15190077 C-10.7740861 70.53868528 -10.77602493 61.92552487 -10.76816809 53.31230211 C-10.76348449 48.16406795 -10.76288555 43.01591973 -10.77277756 37.86769104 C-10.78142625 33.0282604 -10.7754638 28.18906593 -10.75809479 23.34966087 C-10.7541187 21.57065918 -10.75528307 19.79163771 -10.76188278 18.01264381 C-10.77004429 15.58977255 -10.75984277 13.16766475 -10.74484253 10.74484253 C-10.75153469 10.03580198 -10.75822686 9.32676143 -10.76512182 8.5962348 C-10.73268224 5.90697555 -10.60817793 3.82572277 -9.30032539 1.44451714 C-6.3071542 -0.19945115 -3.32713527 -0.03140263 0 0 Z M2.6361084 13.38095093 C2.6361084 68.16095093 2.6361084 122.94095093 2.6361084 179.38095093 C57.4161084 179.38095093 112.1961084 179.38095093 168.6361084 179.38095093 C168.6361084 124.60095093 168.6361084 69.82095093 168.6361084 13.38095093 C113.8561084 13.38095093 59.0761084 13.38095093 2.6361084 13.38095093 Z " fill="#343533" transform="translate(60.3638916015625,258.6190490722656)"/>
<path d="M0 0 C0.75590376 -0.00467997 1.51180753 -0.00935994 2.29061747 -0.01418173 C4.83108822 -0.02617633 7.37102398 -0.01665732 9.91149902 -0.00723267 C11.72971411 -0.01129639 13.54792673 -0.01663715 15.36613464 -0.02316284 C20.31027695 -0.03686593 25.25423193 -0.03152546 30.19837761 -0.02202559 C35.36598094 -0.01444447 40.53356794 -0.02147028 45.70117188 -0.02618408 C54.38019702 -0.03164616 63.05914565 -0.02443817 71.73815918 -0.01016235 C81.78055468 0.00616501 91.82276748 0.00087682 101.86515856 -0.01564157 C110.47837405 -0.02924357 119.09153445 -0.0311824 127.70475721 -0.02332556 C132.85299138 -0.01864196 138.0011396 -0.01804302 143.14936829 -0.02793503 C147.98879893 -0.03658372 152.8279934 -0.03062127 157.66739845 -0.01325226 C159.44640014 -0.00927617 161.22542162 -0.01044054 163.00441551 -0.01704025 C165.42728677 -0.02520176 167.84939458 -0.01500024 170.2722168 0 C170.98125735 -0.00669217 171.6902979 -0.01338433 172.42082453 -0.02027929 C175.25872209 0.01395326 177.17449907 0.05590542 179.53385162 1.71726036 C182.04177422 5.50259175 181.76419233 9.10105072 181.76982117 13.50360107 C181.77208672 14.23359239 181.77435228 14.96358371 181.77668649 15.71569598 C181.78303033 18.16842062 181.78219688 20.62109007 181.78137207 23.07382202 C181.78436333 24.82967704 181.78776578 26.5855314 181.79154968 28.34138489 C181.80039742 33.11618758 181.80272813 37.89097236 181.80336547 42.66578245 C181.8043141 46.6494448 181.80799189 50.63310297 181.81153756 54.61676371 C181.81968511 64.01439858 181.82212153 73.41202387 181.82141113 82.80966187 C181.82081029 92.50888394 181.8313627 102.2080504 181.8471548 111.90725839 C181.86022373 120.23004842 181.8655953 128.55282027 181.86495572 136.87562048 C181.86470054 141.84840894 181.86756292 146.82114799 181.87813377 151.79392624 C181.88780384 156.47079337 181.88790143 161.14756377 181.88061714 165.82443428 C181.87956993 167.54132414 181.88194225 169.25821999 181.8879776 170.97509956 C181.89568131 173.3182918 181.89106356 175.66114862 181.88334656 178.0043335 C181.88389132 179.31583563 181.88443609 180.62733776 181.88499737 181.97858238 C181.64504364 185.25880419 181.16505131 187.48516305 179.6361084 190.38095093 C176.66794068 191.86503479 173.6470447 191.5253538 170.39247131 191.52139282 C169.63742197 191.52436394 168.88237264 191.52733507 168.10444301 191.53039622 C165.561032 191.53910448 163.01766793 191.54059325 160.47424316 191.54208374 C158.65617776 191.54671035 156.83811334 191.55173479 155.02005005 191.55712891 C150.07177812 191.57026855 145.12351978 191.5767007 140.17523313 191.58113956 C137.08665295 191.58406727 133.99807651 191.58817145 130.90949821 191.59264374 C121.2543348 191.60632168 111.59917989 191.61598735 101.94400746 191.61984563 C90.7827541 191.62432978 79.62162301 191.64189298 68.46040684 191.67084622 C59.84297862 191.69242809 51.22558489 191.70254801 42.60812992 191.70388675 C37.45651013 191.70493713 32.30500521 191.71089435 27.15341377 191.72870636 C22.30991837 191.74512713 17.46662495 191.74737188 12.62311172 191.73856735 C10.84248885 191.7377938 9.06185537 191.74218134 7.28125954 191.7520256 C4.85617212 191.76464996 2.43181045 191.75892088 0.00672913 191.7484436 C-0.70299354 191.75650001 -1.41271622 191.76455641 -2.14394563 191.77285695 C-4.83543132 191.7455351 -6.91683222 191.6262462 -9.30074596 190.31822586 C-10.94372396 187.32437443 -10.77624728 184.34441884 -10.74484253 181.01705933 C-10.7495225 180.26115556 -10.75420247 179.5052518 -10.75902426 178.72644186 C-10.77101886 176.1859711 -10.76149985 173.64603535 -10.7520752 171.1055603 C-10.75613892 169.28734522 -10.76147968 167.4691326 -10.76800537 165.65092468 C-10.78170846 160.70678238 -10.77636799 155.76282739 -10.76686811 150.81868172 C-10.759287 145.65107839 -10.76631281 140.48349139 -10.77102661 135.31588745 C-10.77648869 126.63686231 -10.7692807 117.95791368 -10.75500488 109.27890015 C-10.73867752 99.23650464 -10.74396571 89.19429184 -10.7604841 79.15190077 C-10.7740861 70.53868528 -10.77602493 61.92552487 -10.76816809 53.31230211 C-10.76348449 48.16406795 -10.76288555 43.01591973 -10.77277756 37.86769104 C-10.78142625 33.0282604 -10.7754638 28.18906593 -10.75809479 23.34966087 C-10.7541187 21.57065918 -10.75528307 19.79163771 -10.76188278 18.01264381 C-10.77004429 15.58977255 -10.75984277 13.16766475 -10.74484253 10.74484253 C-10.75153469 10.03580198 -10.75822686 9.32676143 -10.76512182 8.5962348 C-10.73268224 5.90697555 -10.60817793 3.82572277 -9.30032539 1.44451714 C-6.3071542 -0.19945115 -3.32713527 -0.03140263 0 0 Z M2.6361084 12.38095093 C2.6361084 67.49095093 2.6361084 122.60095093 2.6361084 179.38095093 C57.4161084 179.38095093 112.1961084 179.38095093 168.6361084 179.38095093 C168.6361084 124.27095093 168.6361084 69.16095093 168.6361084 12.38095093 C113.8561084 12.38095093 59.0761084 12.38095093 2.6361084 12.38095093 Z " fill="#343333" transform="translate(60.3638916015625,49.619049072265625)"/>
<path d="M0 0 C0.75590376 -0.00467997 1.51180753 -0.00935994 2.29061747 -0.01418173 C4.83108822 -0.02617633 7.37102398 -0.01665732 9.91149902 -0.00723267 C11.72971411 -0.01129639 13.54792673 -0.01663715 15.36613464 -0.02316284 C20.31027695 -0.03686593 25.25423193 -0.03152546 30.19837761 -0.02202559 C35.36598094 -0.01444447 40.53356794 -0.02147028 45.70117188 -0.02618408 C54.38019702 -0.03164616 63.05914565 -0.02443817 71.73815918 -0.01016235 C81.78055468 0.00616501 91.82276748 0.00087682 101.86515856 -0.01564157 C110.47837405 -0.02924357 119.09153445 -0.0311824 127.70475721 -0.02332556 C132.85299138 -0.01864196 138.0011396 -0.01804302 143.14936829 -0.02793503 C147.98879893 -0.03658372 152.8279934 -0.03062127 157.66739845 -0.01325226 C159.44640014 -0.00927617 161.22542162 -0.01044054 163.00441551 -0.01704025 C165.42728677 -0.02520176 167.84939458 -0.01500024 170.2722168 0 C170.98125735 -0.00669217 171.6902979 -0.01338433 172.42082453 -0.02027929 C175.11008378 0.01216029 177.19133656 0.1366646 179.57254219 1.44451714 C181.21651048 4.43768833 181.04846196 7.41770726 181.01705933 10.74484253 C181.0217393 11.50074629 181.02641927 12.25665006 181.03124106 13.03546 C181.04323565 15.57593075 181.03371664 18.11586651 181.02429199 20.65634155 C181.02835572 22.47455664 181.03369648 24.29276926 181.04022217 26.11097717 C181.05392526 31.05511948 181.04858479 35.99907446 181.03908491 40.94322014 C181.0315038 46.11082347 181.03852961 51.27841047 181.04324341 56.4460144 C181.04870548 65.12503955 181.0414975 73.80398817 181.02722168 82.48300171 C181.01089432 92.52539721 181.0161825 102.56761001 181.0327009 112.61000109 C181.0463029 121.22321658 181.04824173 129.83637698 181.04038489 138.44959974 C181.03570129 143.59783391 181.03510234 148.74598213 181.04499435 153.89421082 C181.05364305 158.73364146 181.04768059 163.57283593 181.03031158 168.41224098 C181.0263355 170.19124267 181.02749987 171.97026415 181.03409958 173.74925804 C181.04226108 176.1721293 181.03205957 178.59423711 181.01705933 181.01705933 C181.02375149 181.72609988 181.03044366 182.43514043 181.03733861 183.16566706 C181.00489904 185.85492631 180.88039473 187.93617909 179.57254219 190.31738472 C176.57937099 191.96135301 173.59935206 191.79330449 170.2722168 191.76190186 C169.51631303 191.76658183 168.76040927 191.7712618 167.98159933 191.77608359 C165.44112857 191.78807818 162.90119282 191.77855917 160.36071777 191.76913452 C158.54250269 191.77319825 156.72429007 191.778539 154.90608215 191.7850647 C149.96193985 191.79876779 145.01798486 191.79342732 140.07383919 191.78392744 C134.90623586 191.77634633 129.73864886 191.78337214 124.57104492 191.78808594 C115.89201978 191.79354801 107.21307115 191.78634003 98.53405762 191.77206421 C88.49166211 191.75573684 78.44944931 191.76102503 68.40705824 191.77754343 C59.79384275 191.79114543 51.18068234 191.79308425 42.56745958 191.78522742 C37.41922542 191.78054382 32.2710772 191.77994487 27.12284851 191.78983688 C22.28341787 191.79848558 17.4442234 191.79252312 12.60481834 191.77515411 C10.82581665 191.77117803 9.04679518 191.7723424 7.26780128 191.77894211 C4.84493002 191.78710361 2.42282222 191.7769021 0 191.76190186 C-0.70904055 191.76859402 -1.4180811 191.77528619 -2.14860773 191.78218114 C-4.83786698 191.74974157 -6.91911976 191.62523726 -9.30032539 190.31738472 C-10.94429368 187.32421352 -10.77624516 184.34419459 -10.74484253 181.01705933 C-10.7495225 180.26115556 -10.75420247 179.5052518 -10.75902426 178.72644186 C-10.77101886 176.1859711 -10.76149985 173.64603535 -10.7520752 171.1055603 C-10.75613892 169.28734522 -10.76147968 167.4691326 -10.76800537 165.65092468 C-10.78170846 160.70678238 -10.77636799 155.76282739 -10.76686811 150.81868172 C-10.759287 145.65107839 -10.76631281 140.48349139 -10.77102661 135.31588745 C-10.77648869 126.63686231 -10.7692807 117.95791368 -10.75500488 109.27890015 C-10.73867752 99.23650464 -10.74396571 89.19429184 -10.7604841 79.15190077 C-10.7740861 70.53868528 -10.77602493 61.92552487 -10.76816809 53.31230211 C-10.76348449 48.16406795 -10.76288555 43.01591973 -10.77277756 37.86769104 C-10.78142625 33.0282604 -10.7754638 28.18906593 -10.75809479 23.34966087 C-10.7541187 21.57065918 -10.75528307 19.79163771 -10.76188278 18.01264381 C-10.77004429 15.58977255 -10.75984277 13.16766475 -10.74484253 10.74484253 C-10.75153469 10.03580198 -10.75822686 9.32676143 -10.76512182 8.5962348 C-10.73268224 5.90697555 -10.60817793 3.82572277 -9.30032539 1.44451714 C-6.3071542 -0.19945115 -3.32713527 -0.03140263 0 0 Z M2.6361084 13.38095093 C2.6361084 68.16095093 2.6361084 122.94095093 2.6361084 179.38095093 C57.4161084 179.38095093 112.1961084 179.38095093 168.6361084 179.38095093 C168.6361084 124.60095093 168.6361084 69.82095093 168.6361084 13.38095093 C113.8561084 13.38095093 59.0761084 13.38095093 2.6361084 13.38095093 Z " fill="#323435" transform="translate(269.3638916015625,258.6190490722656)"/>
<path d="M0 0 C0.01030746 0.59690643 0.02061493 1.19381287 0.03123474 1.80880737 C0.13917388 8.00530229 0.25378188 14.20164807 0.37231445 20.39794922 C0.41570376 22.71237069 0.45737584 25.026825 0.49731445 27.34130859 C0.55492032 30.66253573 0.61864251 33.98359692 0.68359375 37.3046875 C0.70030624 38.34430634 0.71701874 39.38392517 0.73423767 40.45504761 C0.7641555 41.89631516 0.7641555 41.89631516 0.79467773 43.36669922 C0.81799416 44.63910965 0.81799416 44.63910965 0.84178162 45.93722534 C0.87429958 48.06318305 0.87429958 48.06318305 2 50 C4.865526 50.95517533 6.76521321 51.15054198 9.74682617 51.20532227 C10.70759567 51.22526749 11.66836517 51.24521271 12.6582489 51.26576233 C13.69270645 51.28247482 14.727164 51.29918732 15.79296875 51.31640625 C17.38471672 51.3475779 17.38471672 51.3475779 19.00862122 51.37937927 C22.40151437 51.44481238 25.7944855 51.50373093 29.1875 51.5625 C31.48633622 51.60569114 33.78516453 51.64930562 36.08398438 51.69335938 C41.7225736 51.8004874 47.36124056 51.90226551 53 52 C49.81295202 65.9864175 44.85704673 76.34275598 33 85 C21.06566744 92.40559672 8.71105329 94.86847601 -5.0625 91.875 C-18.80793153 87.99900364 -28.46674095 79.95075209 -35.7109375 67.75 C-39.11531498 60.48732805 -40.5097437 54.08167513 -40.375 46.0625 C-40.36412354 45.18150635 -40.35324707 44.3005127 -40.34204102 43.39282227 C-40.0097193 29.85792292 -35.10921054 19.57667561 -25.25 10.125 C-18.06793384 3.98779799 -9.51497517 -0.21144389 0 0 Z " fill="#FDFDFD" transform="translate(140,106)"/>
<path d="M0 0 C1.22847656 -0.03738281 2.45695312 -0.07476562 3.72265625 -0.11328125 C6.9375 0.3125 6.9375 0.3125 8.61714172 2.03533936 C10.1451754 4.67066812 10.30196348 6.14712647 10.27807617 9.17285156 C10.27784958 10.13354553 10.27762299 11.0942395 10.27738953 12.08404541 C10.26190567 13.11334167 10.24642181 14.14263794 10.23046875 15.203125 C10.22622391 16.26287537 10.22197906 17.32262573 10.21760559 18.41448975 C10.2008203 21.79741887 10.16316755 25.17975109 10.125 28.5625 C10.10995301 30.85676223 10.09626463 33.1510338 10.08398438 35.4453125 C10.05091728 41.0679118 10.00071903 46.69016325 9.9375 52.3125 C10.5277446 52.30361755 11.1179892 52.29473511 11.72612 52.2855835 C17.8741995 52.19702992 24.02209758 52.13673252 30.1706543 52.09277344 C32.46467448 52.07266894 34.75864348 52.04538109 37.05249023 52.01074219 C40.35152826 51.96217441 43.64988822 51.93951923 46.94921875 51.921875 C47.97335373 51.90122986 48.99748871 51.88058472 50.05265808 51.85931396 C57.18068431 51.85707213 57.18068431 51.85707213 61.08496094 54.20654297 C63.85033038 57.35020096 63.57510895 59.30711928 63.35546875 63.34375 C60.81319308 81.40103511 52.14719447 97.5211703 37.56640625 108.5625 C23.41823578 117.98059862 5.58116267 120.93070344 -11.04296875 117.62109375 C-27.46122908 113.34196156 -40.3090552 102.75860824 -49.0625 88.3125 C-57.02326465 72.49225268 -58.36099859 55.85952418 -53.3203125 38.80078125 C-47.79329563 23.22241953 -35.42123402 11.77560247 -21.0625 4.3125 C-17.76832971 3.03363871 -14.50784611 2.08024748 -11.0625 1.3125 C-10.15371094 1.04179688 -10.15371094 1.04179688 -9.2265625 0.765625 C-6.14211597 0.11978421 -3.14827593 0.06289931 0 0 Z M-31.0625 26.3125 C-41.39932105 37.60348914 -43.64980258 49.42504442 -43.40234375 64.20703125 C-42.82170455 77.26779932 -35.94689173 86.80327079 -26.8125 95.5625 C-17.38434631 103.61170605 -5.62267826 106.94891469 6.62890625 106.68359375 C19.37772082 105.25367948 30.441953 99.36997235 39.25 90.0625 C43.96828066 84.07233499 47.4265816 77.05191073 49.01855469 69.60888672 C49.27943878 68.40001297 49.27943878 68.40001297 49.54559326 67.16671753 C49.67492249 66.55482574 49.80425171 65.94293396 49.9375 65.3125 C49.34281418 65.30219254 48.74812836 65.29188507 48.13542175 65.28126526 C41.95499631 65.17322115 35.77471728 65.05862134 29.59448242 64.94018555 C27.28689635 64.89683001 24.97927806 64.8551554 22.67163086 64.81518555 C19.35781133 64.75749817 16.04415403 64.69379908 12.73046875 64.62890625 C11.6960112 64.61219376 10.66155365 64.59548126 9.5957489 64.57826233 C8.6349794 64.55831711 7.6742099 64.53837189 6.68432617 64.51782227 C5.83827316 64.50227798 4.99222015 64.4867337 4.12052917 64.47071838 C1.9375 64.3125 1.9375 64.3125 -1.0625 63.3125 C-2.26072872 60.91604256 -2.21877315 59.35587973 -2.26782227 56.67919922 C-2.2977401 55.23793167 -2.2977401 55.23793167 -2.32826233 53.76754761 C-2.34497482 52.72792877 -2.36168732 51.68830994 -2.37890625 50.6171875 C-2.39968735 49.55460724 -2.42046844 48.49202698 -2.44187927 47.39724731 C-2.50740261 43.99406562 -2.56627273 40.59080511 -2.625 37.1875 C-2.66818257 34.88410634 -2.71179677 32.58072074 -2.75585938 30.27734375 C-2.86308682 24.62247979 -2.96484802 18.96753697 -3.0625 13.3125 C-14.18706715 13.11226549 -23.20111724 18.76050976 -31.0625 26.3125 Z " fill="#373435" transform="translate(143.0625,92.6875)"/>
<path d="M0 0 C4.11824176 1.75006657 6.42182012 4.16070662 8.9375 7.8125 C10.53026349 12.59079046 11.03101368 16.47974433 9.12109375 21.1484375 C6.26057255 26.22751474 3.33307511 28.70126073 -2 31 C-3.13179687 31.0721875 -4.26359375 31.144375 -5.4296875 31.21875 C-9.31200766 32.06827301 -10.40967086 33.02013663 -12.61254883 36.25366211 C-12.98790771 36.85057861 -13.3632666 37.44749512 -13.75 38.0625 C-14.16338623 38.67939697 -14.57677246 39.29629395 -15.00268555 39.93188477 C-15.88767416 41.25399058 -16.76398394 42.58193975 -17.63232422 43.91503906 C-19.50093806 46.76365781 -21.43928374 49.56180335 -23.37792969 52.36303711 C-25.17194385 54.95727441 -26.95251227 57.5603283 -28.71582031 60.17553711 C-29.58355319 61.40834467 -30.49664231 62.61025384 -31.44824219 63.77954102 C-33.96941765 66.93540877 -34.97112437 68.37779901 -35.1640625 72.53515625 C-34.89722656 74.28119141 -34.89722656 74.28119141 -34.625 76.0625 C-33.82223681 81.48414692 -34.04815648 84.31177794 -37 89 C-40.08363001 92.38075061 -43.41514543 94.69966452 -48.05078125 95.23828125 C-53.58013476 95.41972808 -56.64510384 94.73276814 -61 91 C-63.11701923 88.59097812 -63.97710794 87.06867617 -65 84 C-64.90460938 83.24847656 -64.80921875 82.49695313 -64.7109375 81.72265625 C-64.08080908 76.73291842 -64.30953423 73.97806081 -67.26953125 69.78515625 C-70.0186172 66.68450905 -72.98476728 63.8402597 -76 61 C-76.75925781 60.03835938 -77.51851563 59.07671875 -78.30078125 58.0859375 C-81.2173895 55.83200291 -81.87947354 55.62713636 -85.40234375 55.76171875 C-90.7931633 56.7218502 -93.36815163 59.56426043 -96.5625 63.8125 C-97.0877124 64.48595459 -97.6129248 65.15940918 -98.15405273 65.85327148 C-101.95701837 71.09015233 -102.96417174 74.95713321 -102.23828125 81.47265625 C-101.90024371 85.05807078 -102.96707294 87.09581849 -105 90 C-107.67059945 93.20471934 -109.97263969 94.8760855 -114 96 C-119.24665744 96.47696886 -122.55844889 95.86233294 -127 93 C-129.25 90.5625 -129.25 90.5625 -131 88 C-131.4125 87.401875 -131.825 86.80375 -132.25 86.1875 C-133.65108967 82.10098845 -133.71968966 78.13321187 -132.34765625 74.06640625 C-130.41407857 70.20754951 -128.00475487 67.65289737 -124.08203125 65.64453125 C-120.12079785 64.41825824 -116.09468426 64.70340315 -112 65 C-111.77570313 64.46246094 -111.55140625 63.92492187 -111.3203125 63.37109375 C-109.91343898 60.8445487 -108.16932977 58.85163482 -106.26806641 56.68579102 C-101.86197952 51.5515338 -99.33328745 48.12842615 -99.625 41.0625 C-99.71136719 39.99257813 -99.79773438 38.92265625 -99.88671875 37.8203125 C-100 35 -100 35 -98.4375 31.4375 C-94.41968541 27.41968541 -90.74984628 24.81810987 -84.9375 24.5625 C-79.33463929 25.18504008 -75.86958012 26.77086798 -72.1875 31 C-69.06193146 35.286494 -68.99862407 37.63647877 -69.375 42.75 C-69.44717057 47.15397916 -69.44717057 47.15397916 -67.69140625 51.0625 C-65.95167303 52.78389844 -65.95167303 52.78389844 -63.9921875 54.328125 C-61.17503582 56.69232288 -59.19698844 59.61204751 -57.06640625 62.59375 C-54.35101343 64.44165438 -52.20601536 64.38230656 -49.01782227 63.81103516 C-45.107835 62.23947101 -43.34841554 58.89624573 -41.1875 55.4375 C-40.68541016 54.68041748 -40.18332031 53.92333496 -39.66601562 53.14331055 C-38.61854456 51.56309098 -37.58071342 49.97644234 -36.55224609 48.38378906 C-34.11360668 44.63876308 -31.55008161 40.98206613 -29 37.3125 C-27.71774667 35.4492002 -26.43958631 33.5833957 -25.16894531 31.7121582 C-24.3863897 30.56594632 -23.59393325 29.42643481 -22.79199219 28.29370117 C-20.52154643 25.2944871 -20.52154643 25.2944871 -20.25 21.6875 C-20.4975 20.800625 -20.745 19.91375 -21 19 C-21.49491226 14.32872288 -21.46922206 10.95649111 -19.375 6.6875 C-13.66560966 0.22687409 -8.44477631 -1.40950548 0 0 Z " fill="#333536" transform="translate(416,307)"/>
<path d="M0 0 C1.31149577 0.37718916 2.61758632 0.77361795 3.91796875 1.1875 C4.61011475 1.40752686 5.30226074 1.62755371 6.01538086 1.85424805 C18.37518952 6.08022784 27.43761698 14.7443269 33.41796875 26.1875 C36.72159713 33.20881151 39.85327569 41.30755686 38.10546875 49.1875 C36.73706055 51.28637695 36.73706055 51.28637695 34.10546875 53.1875 C30.58733101 53.79029541 27.10076728 53.72368559 23.5390625 53.68359375 C22.5086232 53.68504898 21.4781839 53.68650421 20.41651917 53.68800354 C18.24029713 53.68634484 16.06406334 53.67478691 13.88793945 53.65405273 C10.55174121 53.62507619 7.21712953 53.63344919 3.88085938 53.64648438 C1.76691934 53.64024768 -0.34701567 53.63185728 -2.4609375 53.62109375 C-3.46097305 53.62402939 -4.46100861 53.62696503 -5.49134827 53.62998962 C-6.88310524 53.61096336 -6.88310524 53.61096336 -8.30297852 53.59155273 C-9.11920181 53.58614975 -9.93542511 53.58074677 -10.77638245 53.57518005 C-13.45815552 53.08434111 -14.33277988 52.40942387 -15.89453125 50.1875 C-16.2822113 48.0693512 -16.2822113 48.0693512 -16.29858398 45.59594727 C-16.31126816 44.66810928 -16.32395233 43.7402713 -16.33702087 42.78431702 C-16.33408524 41.78428146 -16.3311496 40.78424591 -16.328125 39.75390625 C-16.33336685 38.72442368 -16.3386087 37.6949411 -16.3440094 36.63426208 C-16.35043499 34.45629783 -16.3490857 32.2782989 -16.34057617 30.1003418 C-16.3320724 26.76613575 -16.36081133 23.4336458 -16.39257812 20.09960938 C-16.39419034 17.98437551 -16.39361222 15.86913862 -16.390625 13.75390625 C-16.40185898 12.75589493 -16.41309296 11.75788361 -16.42466736 10.72962952 C-16.35549051 3.86433809 -16.35549051 3.86433809 -14.09863281 0.55053711 C-9.63210188 -2.21160757 -4.8661443 -1.01520363 0 0 Z " fill="#353333" transform="translate(176.89453125,83.8125)"/>
<path d="M0 0 C3.96 0 7.92 0 12 0 C12 40.92 12 81.84 12 124 C8.04 124 4.08 124 0 124 C0 83.08 0 42.16 0 0 Z " fill="#FEFEFE" transform="translate(397,104)"/>
<path d="M0 0 C4.29 0 8.58 0 13 0 C13 28.38 13 56.76 13 86 C8.71 86 4.42 86 0 86 C0 57.62 0 29.24 0 0 Z " fill="#F5F5F5" transform="translate(348,143)"/>
<path d="M0 0 C0.73528427 -0.00350464 1.47056854 -0.00700928 2.22813416 -0.01062012 C4.66007921 -0.01942646 7.09173359 -0.01359163 9.52368164 -0.00683594 C11.21375077 -0.00818305 12.90381953 -0.01012397 14.59388733 -0.01263428 C18.13717333 -0.01558417 21.68035853 -0.01129278 25.22363281 -0.00195312 C29.7644171 0.00943264 34.30496474 0.00288669 38.84574032 -0.00909805 C42.33644898 -0.01632773 45.82710161 -0.01402348 49.31781197 -0.00884247 C50.99194937 -0.00750859 52.66609186 -0.00914455 54.34022331 -0.01380157 C56.68137947 -0.01888405 59.02215352 -0.01113216 61.36328125 0 C62.05484314 -0.00404846 62.74640503 -0.00809692 63.45892334 -0.01226807 C67.00311007 0.01893199 69.85280477 0.08185675 72.74633789 2.25878906 C73.62133789 5.69628906 73.62133789 5.69628906 73.74633789 9.25878906 C71.74633789 12.25878906 71.74633789 12.25878906 68.74633789 13.25878906 C66.31935237 13.36974611 63.92027481 13.42637967 61.49267578 13.43579102 C60.75739151 13.44236221 60.02210724 13.44893341 59.26454163 13.45570374 C56.83269141 13.47540637 54.40090276 13.48709047 51.96899414 13.49707031 C51.13826323 13.50114584 50.30753231 13.50522137 49.45162773 13.50942039 C45.05743535 13.53026487 40.66327407 13.54457546 36.26904297 13.55395508 C31.72812028 13.5650362 27.18768538 13.59945994 22.64693546 13.63912678 C19.15623553 13.66524672 15.66565288 13.67364261 12.17486382 13.67723656 C10.50069306 13.68211192 8.82652787 13.6937529 7.15245247 13.71227455 C4.81103659 13.73657621 2.47089742 13.73571848 0.12939453 13.72875977 C-0.56216736 13.74156982 -1.25372925 13.75437988 -1.96624756 13.76757812 C-5.27700307 13.7316932 -7.01753761 13.43145754 -9.7190094 11.45597839 C-11.25366211 9.25878906 -11.25366211 9.25878906 -11.19116211 5.63378906 C-9.48546352 -0.50672587 -5.48978783 -0.03204389 0 0 Z " fill="#363934" transform="translate(131.253662109375,331.7412109375)"/>
<path d="M0 0 C0.76615128 -0.00525696 1.53230255 -0.01051392 2.32167053 -0.01593018 C4.85593003 -0.02914141 7.38956216 -0.02038839 9.92382812 -0.01025391 C11.68355429 -0.01227433 13.44327964 -0.01518549 15.20300293 -0.01895142 C18.891764 -0.02337628 22.58030721 -0.01693855 26.26904297 -0.00292969 C31.00059094 0.01416236 35.73162842 0.00432204 40.46315765 -0.01364708 C44.09710547 -0.02448057 47.73093198 -0.02104059 51.36488342 -0.0132637 C53.10962484 -0.01126049 54.85437722 -0.01372522 56.59910583 -0.02070236 C59.03641998 -0.0283098 61.47290404 -0.01672324 63.91015625 0 C64.63336563 -0.00607269 65.35657501 -0.01214539 66.10169983 -0.0184021 C68.99272819 0.01840201 70.98042627 0.06248688 73.40319824 1.72494507 C75.06002546 4.34472979 74.83199721 6.37283092 74.45507812 9.38818359 C73.40319824 11.05142212 73.40319824 11.05142212 71.45507812 12.38818359 C68.86034333 12.68415635 66.50534163 12.79815861 63.91015625 12.77636719 C63.14400497 12.78162415 62.3778537 12.7868811 61.58848572 12.79229736 C59.05422622 12.80550859 56.52059409 12.79675558 53.98632812 12.78662109 C52.22660196 12.78864151 50.46687661 12.79155268 48.70715332 12.7953186 C45.01839225 12.79974347 41.32984904 12.79330574 37.64111328 12.77929688 C32.90956531 12.76220482 28.17852783 12.77204515 23.4469986 12.79001427 C19.81305078 12.80084776 16.17922427 12.79740778 12.54527283 12.78963089 C10.80053141 12.78762768 9.05577903 12.79009241 7.31105042 12.79706955 C4.87373627 12.80467699 2.43725221 12.79309043 0 12.77636719 C-0.72320938 12.78243988 -1.44641876 12.78851257 -2.19154358 12.79476929 C-5.08257194 12.75796518 -7.07027002 12.71388031 -9.49304199 11.05142212 C-11.14986921 8.43163739 -10.92184096 6.40353626 -10.54492188 3.38818359 C-8.03519531 -0.58021049 -4.2353225 -0.03556344 0 0 Z " fill="#333333" transform="translate(130.544921875,396.61181640625)"/>
<path d="M0 0 C0.76615128 -0.00525696 1.53230255 -0.01051392 2.32167053 -0.01593018 C4.85593003 -0.02914141 7.38956216 -0.02038839 9.92382812 -0.01025391 C11.68355429 -0.01227433 13.44327964 -0.01518549 15.20300293 -0.01895142 C18.891764 -0.02337628 22.58030721 -0.01693855 26.26904297 -0.00292969 C31.00059094 0.01416236 35.73162842 0.00432204 40.46315765 -0.01364708 C44.09710547 -0.02448057 47.73093198 -0.02104059 51.36488342 -0.0132637 C53.10962484 -0.01126049 54.85437722 -0.01372522 56.59910583 -0.02070236 C59.03641998 -0.0283098 61.47290404 -0.01672324 63.91015625 0 C64.63336563 -0.00607269 65.35657501 -0.01214539 66.10169983 -0.0184021 C68.99272819 0.01840201 70.98042627 0.06248688 73.40319824 1.72494507 C75.06002546 4.34472979 74.83199721 6.37283092 74.45507812 9.38818359 C73.40319824 11.05142212 73.40319824 11.05142212 71.45507812 12.38818359 C68.86034333 12.68415635 66.50534163 12.79815861 63.91015625 12.77636719 C63.14400497 12.78162415 62.3778537 12.7868811 61.58848572 12.79229736 C59.05422622 12.80550859 56.52059409 12.79675558 53.98632812 12.78662109 C52.22660196 12.78864151 50.46687661 12.79155268 48.70715332 12.7953186 C45.01839225 12.79974347 41.32984904 12.79330574 37.64111328 12.77929688 C32.90956531 12.76220482 28.17852783 12.77204515 23.4469986 12.79001427 C19.81305078 12.80084776 16.17922427 12.79740778 12.54527283 12.78963089 C10.80053141 12.78762768 9.05577903 12.79009241 7.31105042 12.79706955 C4.87373627 12.80467699 2.43725221 12.79309043 0 12.77636719 C-0.72320938 12.78243988 -1.44641876 12.78851257 -2.19154358 12.79476929 C-5.08257194 12.75796518 -7.07027002 12.71388031 -9.49304199 11.05142212 C-11.14986921 8.43163739 -10.92184096 6.40353626 -10.54492188 3.38818359 C-8.03519531 -0.58021049 -4.2353225 -0.03556344 0 0 Z " fill="#333333" transform="translate(130.544921875,364.61181640625)"/>
<path d="M0 0 C0.76615128 -0.00525696 1.53230255 -0.01051392 2.32167053 -0.01593018 C4.85593003 -0.02914141 7.38956216 -0.02038839 9.92382812 -0.01025391 C11.68355429 -0.01227433 13.44327964 -0.01518549 15.20300293 -0.01895142 C18.891764 -0.02337628 22.58030721 -0.01693855 26.26904297 -0.00292969 C31.00059094 0.01416236 35.73162842 0.00432204 40.46315765 -0.01364708 C44.09710547 -0.02448057 47.73093198 -0.02104059 51.36488342 -0.0132637 C53.10962484 -0.01126049 54.85437722 -0.01372522 56.59910583 -0.02070236 C59.03641998 -0.0283098 61.47290404 -0.01672324 63.91015625 0 C64.63336563 -0.00607269 65.35657501 -0.01214539 66.10169983 -0.0184021 C68.99272819 0.01840201 70.98042627 0.06248688 73.40319824 1.72494507 C75.06002546 4.34472979 74.83199721 6.37283092 74.45507812 9.38818359 C73.40319824 11.05142212 73.40319824 11.05142212 71.45507812 12.38818359 C68.86034333 12.68415635 66.50534163 12.79815861 63.91015625 12.77636719 C63.14400497 12.78162415 62.3778537 12.7868811 61.58848572 12.79229736 C59.05422622 12.80550859 56.52059409 12.79675558 53.98632812 12.78662109 C52.22660196 12.78864151 50.46687661 12.79155268 48.70715332 12.7953186 C45.01839225 12.79974347 41.32984904 12.79330574 37.64111328 12.77929688 C32.90956531 12.76220482 28.17852783 12.77204515 23.4469986 12.79001427 C19.81305078 12.80084776 16.17922427 12.79740778 12.54527283 12.78963089 C10.80053141 12.78762768 9.05577903 12.79009241 7.31105042 12.79706955 C4.87373627 12.80467699 2.43725221 12.79309043 0 12.77636719 C-0.72320938 12.78243988 -1.44641876 12.78851257 -2.19154358 12.79476929 C-5.08257194 12.75796518 -7.07027002 12.71388031 -9.49304199 11.05142212 C-11.14986921 8.43163739 -10.92184096 6.40353626 -10.54492188 3.38818359 C-8.03519531 -0.58021049 -4.2353225 -0.03556344 0 0 Z " fill="#333333" transform="translate(130.544921875,299.61181640625)"/>
<path d="M0 0 C3.96 0 7.92 0 12 0 C12 18.81 12 37.62 12 57 C8.04 57 4.08 57 0 57 C0 38.19 0 19.38 0 0 Z " fill="#FCFCFC" transform="translate(300,172)"/>
<path d="M0 0 C9.71424207 1.38774887 16.92119914 5.1519959 23 13 C25.99227134 17.95352691 27.86027993 22.30139967 29 28 C19.43 28 9.86 28 0 28 C0 18.76 0 9.52 0 0 Z " fill="#F6F6F6" transform="translate(173,97)"/>
<path d="M0 0 C3.25 2 3.25 2 5 4 C4.51219512 9.48780488 4.51219512 9.48780488 2.328125 11.671875 C-0.6046538 13.34493673 -2.63665147 13.43329581 -6 13.4375 C-7.03125 13.45683594 -8.0625 13.47617187 -9.125 13.49609375 C-12.68100387 12.88248982 -13.87723801 11.87979518 -16 9 C-15.9375 5.375 -15.9375 5.375 -15 2 C-10.34805297 -1.10129802 -5.44963944 -0.63162937 0 0 Z " fill="#363934" transform="translate(102,332)"/>
<path d="M0 0 C1.01513672 -0.01740234 1.01513672 -0.01740234 2.05078125 -0.03515625 C4.95265407 -0.0179854 7.02113103 0.06047659 9.48046875 1.67578125 C11.24061841 4.60936402 10.25275232 7.19027863 9.5 10.375 C7.02614329 12.84885671 5.52495772 12.66071102 2.13867188 12.69726562 C1.1109668 12.69243164 1.1109668 12.69243164 0.0625 12.6875 C-0.9594043 12.71166992 -0.9594043 12.71166992 -2.00195312 12.73632812 C-4.93173905 12.73919765 -6.99001283 12.72350826 -9.44921875 11.04296875 C-11.10199548 8.4194161 -10.87714519 6.3921615 -10.5 3.375 C-7.99606406 -0.57565448 -4.22569948 -0.07244056 0 0 Z " fill="#343633" transform="translate(96.5,299.625)"/>
<path d="M0 0 C1.13308594 0.00386719 2.26617187 0.00773437 3.43359375 0.01171875 C6.40829449 0.29767625 8.1355987 0.60446757 10.5625 2.3125 C11.61516215 5.54066392 12.00931509 7.36960124 10.53515625 10.48046875 C7.64600644 13.16365936 4.79755485 12.86027305 1.0625 12.75 C0.38574219 12.75708984 -0.29101562 12.76417969 -0.98828125 12.77148438 C-3.89721228 12.73419039 -5.95165327 12.64712937 -8.3828125 10.97265625 C-10.04526359 8.3558351 -9.81439244 6.32763949 -9.4375 3.3125 C-6.95756915 -0.37715322 -4.20280649 -0.06201644 0 0 Z " fill="#343633" transform="translate(95.4375,396.6875)"/>
<path d="M0 0 C1.01513672 -0.01740234 1.01513672 -0.01740234 2.05078125 -0.03515625 C4.95017969 -0.01800005 7.01785679 0.0570719 9.47265625 1.67578125 C10.5 3.375 10.5 3.375 10.4375 6.9375 C9.5 10.375 9.5 10.375 7.8515625 11.56640625 C4.80873778 12.61269315 2.15256264 12.71342363 -1.0625 12.75 C-2.19816406 12.77835937 -3.33382812 12.80671875 -4.50390625 12.8359375 C-7.5 12.375 -7.5 12.375 -9.37890625 10.51171875 C-10.7657965 7.86841225 -10.95320925 6.32086014 -10.5 3.375 C-7.95509006 -0.55547202 -4.23986819 -0.07268345 0 0 Z " fill="#343633" transform="translate(96.5,364.625)"/>
<path d="M0 0 C2.0625 0.4375 2.0625 0.4375 4 1 C4.33 2.32 4.66 3.64 5 5 C3.35 5.33 1.7 5.66 0 6 C-0.38218767 4.34385343 -0.71395102 2.67542976 -1 1 C-0.67 0.67 -0.34 0.34 0 0 Z " fill="#E7E7E7" transform="translate(297,384)"/>
<path d="M0 0 C1.65 0.33 3.3 0.66 5 1 C5 2.32 5 3.64 5 5 C3.125 5.625 3.125 5.625 1 6 C0.34 5.34 -0.32 4.68 -1 4 C-0.625 1.875 -0.625 1.875 0 0 Z " fill="#E8E8E8" transform="translate(329,345)"/>
<path d="M0 0 C2.0625 0.4375 2.0625 0.4375 4 1 C3.67 2.65 3.34 4.3 3 6 C1.68 5.67 0.36 5.34 -1 5 C-1 1 -1 1 0 0 Z " fill="#EDEDED" transform="translate(365,384)"/>
<path d="M0 0 C2.0625 0.4375 2.0625 0.4375 4 1 C3.67 2.65 3.34 4.3 3 6 C1.68 5.67 0.36 5.34 -1 5 C-1 1 -1 1 0 0 Z " fill="#F0F0F0" transform="translate(409,319)"/>
</svg>
